<svg width="197" height="30" viewBox="0 0 197 30" fill="none" xmlns="http://www.w3.org/2000/svg">
<path d="M3.70614 0.148678C3.91007 0.322939 4.12286 0.4972 4.35339 0.702212C4.35339 3.59289 4.35339 6.49381 4.35339 9.44599C4.45092 9.39474 4.51298 9.36399 4.56618 9.33323C5.69221 8.49268 6.92464 8.06216 8.26346 7.95965C9.65548 7.84689 11.012 8.0109 12.3154 8.57469C14.9132 9.70226 16.5447 11.8856 17.3338 14.9301C17.5732 15.8526 17.6884 16.7957 17.7505 17.7592C17.8569 19.3071 17.7682 20.8447 17.4934 22.3618C17.1653 24.2069 16.5003 25.8572 15.3566 27.2206C14.2128 28.5942 12.7942 29.3834 11.1894 29.7525C10.1786 29.9882 9.1501 30.0292 8.13047 29.9165C6.95124 29.7935 5.85181 29.3629 4.83217 28.6659C4.69918 28.5737 4.56618 28.4916 4.38885 28.3686C4.37112 28.5839 4.35339 28.7582 4.33566 28.9837C4.20266 29.1169 4.0342 29.2809 3.83027 29.486C2.74858 29.486 1.61368 29.486 0.434453 29.486C0.301457 29.3219 0.159595 29.1272 0 28.9222C0 19.9529 0 10.9323 0 1.90153C0.735909 1.55301 1.47182 1.21474 2.19886 0.866222C2.60671 0.67146 3.01457 0.486949 3.42242 0.292187C3.50222 0.251185 3.57315 0.189681 3.64408 0.138428C3.65295 0.148678 3.67955 0.148678 3.70614 0.148678ZM4.34452 23.2843C4.61938 23.8994 5.35529 24.5657 5.91387 24.9142C7.07537 25.642 8.30779 25.8572 9.60228 25.6112C10.8879 25.3652 11.8543 24.5964 12.4927 23.2741C12.7498 22.7513 12.9272 22.1875 13.0513 21.6032C13.335 20.3219 13.3439 19.0201 13.2641 17.7182C13.2198 16.9084 13.0779 16.1191 12.8208 15.3503C12.3065 13.7923 11.3933 12.7262 9.95694 12.3367C9.36289 12.1727 8.75111 12.1522 8.13933 12.1932C6.74731 12.2854 5.60355 12.9825 4.61938 14.0793C4.40659 14.315 4.32679 14.5713 4.32679 14.9198C4.33566 17.5952 4.33566 20.2604 4.33566 22.9358C4.34452 23.0486 4.34452 23.1818 4.34452 23.2843Z" fill="white"/>
<path d="M67.7923 0.149404C67.9962 0.323665 68.209 0.497925 68.4306 0.692687C68.4306 5.28497 68.4306 9.8875 68.4306 14.5823C70.4256 12.4912 72.3585 10.4513 74.3002 8.4114C75.7277 8.4114 77.1552 8.4114 78.6181 8.4114C78.7245 8.70867 78.822 9.00594 78.9462 9.34421C77.2882 11.0458 75.639 12.7474 73.9544 14.4798C76.4104 19.1951 78.8575 23.9001 81.3224 28.6359C81.1982 28.9024 81.0652 29.1689 80.9322 29.4559C79.5845 29.4559 78.2369 29.4559 76.8803 29.4559C74.8676 25.5402 72.8461 21.6347 70.8157 17.6985C70 18.539 69.2286 19.3283 68.4484 20.1381C68.4484 23.0595 68.4484 25.981 68.4484 28.9434C68.2888 29.1074 68.1203 29.2714 67.9164 29.4662C66.8347 29.4662 65.6998 29.4662 64.5206 29.4662C64.3876 29.3022 64.2457 29.1074 64.0861 28.9024C64.0861 19.9331 64.0861 10.9126 64.0861 1.88176C64.822 1.53324 65.5579 1.19497 66.285 0.846446C66.6928 0.651685 67.1007 0.467173 67.5085 0.272412C67.5883 0.231409 67.6593 0.169905 67.7302 0.118652C67.7391 0.149404 67.7657 0.149404 67.7923 0.149404Z" fill="white"/>
<path d="M100.491 28.933C100.323 29.1175 100.172 29.302 100.013 29.4866C98.8689 29.4866 97.7251 29.4866 96.5725 29.4866C96.4395 29.3123 96.2976 29.138 96.1114 28.9125C96.1114 28.81 96.1114 28.6358 96.1114 28.4512C96.1114 24.9558 96.1114 21.4603 96.1114 17.9649C96.1114 17.2883 96.0937 16.6118 96.0671 15.9455C96.0405 15.3407 95.9164 14.7667 95.7213 14.2029C95.3578 13.1983 94.7017 12.5833 93.8062 12.327C92.9905 12.0913 92.157 12.081 91.3413 12.327C89.967 12.737 89.1425 13.7929 88.8321 15.3715C88.7346 15.8942 88.6903 16.4375 88.6903 16.9808C88.6814 20.8043 88.6814 24.6278 88.6814 28.4512C88.6814 28.6153 88.6814 28.7793 88.6814 28.974C88.5307 29.1278 88.3711 29.2815 88.1672 29.4866C87.0855 29.4866 85.9328 29.4866 84.7447 29.4866C84.6295 29.3225 84.4965 29.138 84.3192 28.9023C84.3192 22.3214 84.3192 15.6482 84.3192 8.92382C84.461 8.78031 84.6295 8.6163 84.8245 8.42154C85.9062 8.42154 87.05 8.42154 88.2292 8.42154C88.3445 8.58555 88.4775 8.75981 88.6637 9.01608C88.6637 9.08783 88.6814 9.26209 88.6903 9.47735C88.7789 9.4261 88.8587 9.39535 88.9297 9.33384C90.0202 8.48304 91.2438 8.09352 92.5383 7.96026C93.3363 7.87826 94.1165 7.89876 94.8967 8.05252C96.4217 8.34979 97.7694 9.05708 98.8245 10.3999C98.8423 10.4204 98.86 10.4409 98.9043 10.4717C98.9487 10.4307 99.0019 10.3999 99.0462 10.3487C100.119 9.08783 101.44 8.37029 102.939 8.08327C104.481 7.786 106.015 7.83725 107.522 8.33954C109.189 8.90332 110.555 9.94888 111.459 11.7017C111.902 12.5628 112.168 13.5058 112.248 14.5002C112.293 15.0639 112.319 15.638 112.319 16.2018C112.328 20.2815 112.319 24.3612 112.319 28.441C112.319 28.605 112.319 28.769 112.319 28.9535C112.16 29.1175 111.991 29.2815 111.805 29.4763C110.697 29.4763 109.553 29.4763 108.391 29.4763C108.258 29.3123 108.125 29.1278 107.939 28.892C107.939 28.7895 107.939 28.6153 107.939 28.441C107.939 24.6585 107.939 20.876 107.939 17.1038C107.939 16.335 107.895 15.5765 107.726 14.8282C107.363 13.2598 106.476 12.368 104.969 12.1938C104.357 12.122 103.745 12.122 103.16 12.327C101.83 12.7883 101.023 13.8339 100.642 15.3612C100.5 15.9455 100.474 16.54 100.474 17.1448C100.474 20.9068 100.474 24.679 100.474 28.441C100.491 28.605 100.491 28.769 100.491 28.933Z" fill="white"/>
<path d="M164.64 20.8352C160.118 20.8352 155.631 20.8352 151.118 20.8352C151.207 21.5937 151.393 22.2702 151.704 22.8955C152.546 24.5869 153.796 25.5504 155.49 25.735C157.254 25.9297 158.823 25.4069 160.18 24.0539C160.242 23.9924 160.304 23.9411 160.357 23.8796C160.375 23.8591 160.401 23.8488 160.455 23.8078C161.262 24.6484 162.042 25.5402 162.84 26.4218C162.84 26.6883 162.84 26.9548 162.84 27.2418C162.396 27.7133 161.9 28.1029 161.386 28.4411C160.198 29.2202 158.921 29.6712 157.564 29.866C156.713 29.989 155.853 29.9992 155.002 29.9275C152.679 29.7225 150.648 28.7691 149.035 26.7703C147.9 25.3659 147.191 23.7053 146.827 21.8397C146.561 20.4764 146.526 19.1028 146.605 17.719C146.703 16.0891 147.031 14.5208 147.714 13.0754C148.654 11.0766 150.046 9.63123 151.872 8.79068C154.426 7.62211 157.032 7.57085 159.63 8.61642C161.253 9.27246 162.583 10.4103 163.531 12.1016C164.117 13.1472 164.471 14.3055 164.648 15.5253C164.906 17.2782 164.852 19.0208 164.64 20.8352ZM160.375 16.7862C160.348 16.5402 160.331 16.3351 160.304 16.1301C160.1 14.3978 159.329 13.1677 157.928 12.4809C156.819 11.9376 155.685 11.9171 154.532 12.2246C152.723 12.7064 151.296 14.1313 151.083 16.7862C154.16 16.7862 157.245 16.7862 160.375 16.7862Z" fill="white"/>
<path d="M29.7201 29.9584C28.2571 29.9892 26.8917 29.7534 25.5883 29.1384C23.0526 27.9391 21.4389 25.7762 20.6852 22.7522C20.2419 20.9584 20.1887 19.1235 20.3483 17.2682C20.4458 16.1303 20.6586 15.0233 21.0488 13.9675C22.1216 11.0358 24.019 9.19067 26.6612 8.35012C27.9113 7.96059 29.1792 7.85809 30.4737 7.95034C31.5997 8.03235 32.6903 8.25786 33.7277 8.74989C36.3876 10.0107 38.0367 12.3069 38.7283 15.5153C39.0918 17.1862 39.1273 18.8878 38.9854 20.6099C38.8702 21.9629 38.5953 23.2648 38.0722 24.4846C36.9196 27.16 35.0665 28.8206 32.5839 29.5792C31.6263 29.8662 30.651 29.9892 29.7201 29.9584ZM24.7106 19.0313C24.6928 20.1076 24.817 21.2557 25.1894 22.332C25.7479 23.9413 26.7232 25.0586 28.2039 25.4994C29.0906 25.7659 29.9949 25.7659 30.8993 25.5609C31.8214 25.3456 32.5928 24.8536 33.2312 24.0541C33.8163 23.316 34.1621 22.4447 34.3838 21.4914C34.6232 20.4356 34.6586 19.3593 34.6232 18.283C34.5877 17.3502 34.4547 16.4379 34.1444 15.5666C33.6124 14.0392 32.7258 12.9321 31.3338 12.4401C30.6333 12.1838 29.9063 12.1531 29.1792 12.2044C27.3084 12.3479 25.9962 13.4037 25.2514 15.4025C24.8258 16.5199 24.7017 17.7192 24.7106 19.0313Z" fill="white"/>
<path d="M50.955 29.9579C49.5009 29.9887 48.1355 29.7529 46.841 29.1276C44.323 27.9283 42.7182 25.7757 41.9556 22.7723C41.5744 21.2552 41.4946 19.7073 41.5567 18.139C41.6099 16.7859 41.8049 15.4636 42.2394 14.1925C43.2856 11.1275 45.2185 9.20043 47.9404 8.33938C49.1729 7.94985 50.4319 7.84735 51.7175 7.9396C52.8436 8.02161 53.9341 8.23687 54.9715 8.7289C57.6491 9.99998 59.3071 12.2859 59.9987 15.5148C60.3622 17.2164 60.4066 18.9488 60.247 20.6914C60.1051 22.2597 59.7416 23.7461 59.0411 25.1094C57.9151 27.3133 56.2571 28.7484 54.138 29.4659C53.0741 29.8452 52.0012 29.9887 50.955 29.9579ZM45.9721 19.0513C45.9455 20.1276 46.0785 21.2654 46.4598 22.3417C47.0184 23.9306 47.9759 25.0376 49.4477 25.4784C50.2723 25.7244 51.1146 25.7552 51.9569 25.6014C53.0475 25.3964 53.9607 24.8224 54.6612 23.8178C55.1488 23.1208 55.4591 22.311 55.6542 21.4499C55.8936 20.3941 55.9202 19.3178 55.8847 18.2415C55.8493 17.3087 55.7074 16.3964 55.4059 15.5251C54.874 14.008 53.9784 12.9009 52.5864 12.4089C51.886 12.1629 51.1589 12.1219 50.4319 12.1834C48.5788 12.3269 47.2666 13.3827 46.5218 15.3508C46.0874 16.5091 45.9633 17.7187 45.9721 19.0513Z" fill="white"/>
<path d="M143.077 29.0257C142.997 29.1077 142.899 29.1897 142.82 29.282C142.766 29.3435 142.722 29.4255 142.687 29.4767C141.49 29.4767 140.337 29.4767 139.167 29.4767C139.034 29.3127 138.892 29.1385 138.714 28.9129C138.714 28.7899 138.714 28.6157 138.714 28.4414C138.714 24.6794 138.714 20.9072 138.714 17.1452C138.714 16.4379 138.67 15.7409 138.528 15.0541C138.209 13.5575 137.367 12.6657 136.108 12.3274C135.053 12.0404 133.997 12.1019 132.96 12.4607C131.754 12.8912 131.045 13.8548 130.806 15.2591C130.708 15.8126 130.664 16.3867 130.664 16.9505C130.655 20.7944 130.655 24.6282 130.655 28.4722C130.655 28.6362 130.655 28.8002 130.655 28.9539C130.486 29.1385 130.345 29.3025 130.176 29.487C129.05 29.487 127.906 29.487 126.727 29.487C126.603 29.3127 126.47 29.118 126.284 28.8617C126.284 22.291 126.284 15.6076 126.284 8.95496C126.443 8.7602 126.585 8.58594 126.727 8.41168C127.889 8.41168 129.041 8.41168 130.194 8.41168C130.345 8.58594 130.486 8.7602 130.637 8.94471C130.646 9.13948 130.655 9.34449 130.664 9.60075C130.752 9.5495 130.823 9.5085 130.877 9.4675C131.976 8.54494 133.217 8.09391 134.565 7.96065C135.789 7.8479 137.003 7.9504 138.182 8.31943C140.559 9.05747 142.048 10.8103 142.687 13.5575C142.935 14.6236 143.068 15.6999 143.068 16.7967C143.086 20.7842 143.077 24.7819 143.077 28.7694C143.086 28.8309 143.086 28.8924 143.077 29.0257Z" fill="white"/>
<path d="M196.204 11.0867C196.186 11.3635 196.177 11.63 196.16 11.9273C195.273 12.655 194.395 13.3931 193.482 14.1414C193.34 14.0081 193.216 13.8954 193.092 13.7724C192.019 12.7063 190.778 12.1528 189.368 12.1015C188.73 12.081 188.1 12.0913 187.479 12.2963C187.169 12.3988 186.868 12.5423 186.61 12.7781C186.079 13.2598 186.008 14.0696 186.486 14.6232C186.681 14.8487 186.93 15.0332 187.178 15.187C188.162 15.802 189.217 16.2223 190.272 16.622C191.248 16.9808 192.205 17.3806 193.136 17.8829C193.81 18.2416 194.448 18.6722 195.051 19.1642C196.009 19.9637 196.621 21.0196 196.869 22.3521C197.073 23.49 197.055 24.6175 196.7 25.7143C196.293 26.9957 195.521 27.9182 194.519 28.5948C193.633 29.1893 192.675 29.5378 191.673 29.7428C190.583 29.9684 189.474 30.0196 188.375 29.9068C185.99 29.6711 183.835 28.7383 182.044 26.8522C181.911 26.7087 181.787 26.5549 181.672 26.4216C181.699 26.1346 181.716 25.8784 181.743 25.5913C182.647 24.8225 183.56 24.0435 184.5 23.2542C184.651 23.408 184.793 23.5617 184.935 23.7155C185.777 24.5663 186.699 25.2326 187.79 25.5606C188.96 25.9194 190.122 25.9091 191.283 25.5093C191.585 25.4068 191.877 25.2223 192.152 25.0173C192.728 24.5765 192.835 23.5925 192.436 22.9877C192.294 22.7724 192.134 22.5777 191.957 22.4034C191.452 21.9011 190.866 21.5423 190.237 21.2861C189.182 20.8658 188.127 20.4558 187.08 20.015C185.892 19.5127 184.757 18.8977 183.729 18.0469C182.931 17.3806 182.328 16.5298 182.035 15.433C181.441 13.2393 182 10.9637 183.756 9.57986C184.624 8.89307 185.573 8.44204 186.602 8.19603C188.552 7.745 190.494 7.79625 192.409 8.44204C193.854 8.94432 195.113 9.81563 196.204 11.0867Z" fill="white"/>
<path d="M168.328 8.95434C168.488 8.76983 168.638 8.60582 168.807 8.41106C169.933 8.41106 171.085 8.41106 172.238 8.41106C172.389 8.58532 172.531 8.75958 172.699 8.96459C172.699 9.19011 172.699 9.45662 172.699 9.8154C174.038 8.2983 175.634 7.82677 177.381 7.91903C178.569 7.98053 179.677 8.32906 180.643 9.26186C180.457 10.4304 180.271 11.6093 180.076 12.7881C179.837 12.9213 179.597 13.0443 179.367 13.1673C178.888 12.8701 178.4 12.6343 177.877 12.5216C176.822 12.2755 175.794 12.337 174.809 12.9111C173.701 13.5569 173.027 14.5819 172.832 15.9965C172.743 16.6116 172.699 17.2471 172.69 17.8724C172.681 21.3986 172.681 24.9248 172.681 28.4408C172.681 28.6048 172.681 28.7688 172.681 28.9636C172.531 29.1071 172.371 29.2608 172.141 29.4658C171.085 29.4658 169.933 29.4658 168.745 29.4658C168.621 29.3018 168.479 29.1071 168.31 28.8918C168.328 22.2802 168.328 15.607 168.328 8.95434Z" fill="white"/>
<path d="M121.345 28.9129C121.177 29.1179 121.017 29.3024 120.857 29.4972C119.829 29.4972 118.792 29.4972 117.754 29.4972C117.648 29.4972 117.55 29.4972 117.471 29.4972C117.293 29.3024 117.134 29.1281 116.974 28.9436C116.974 22.2807 116.974 15.6281 116.974 8.9549C117.134 8.78064 117.284 8.60638 117.462 8.41162C118.588 8.41162 119.731 8.41162 120.92 8.41162C121.035 8.57563 121.168 8.78064 121.354 9.05741C121.345 15.5973 121.345 22.25 121.345 28.9129Z" fill="white"/>
<path d="M119.137 5.83855C118.526 5.85905 117.958 5.66429 117.462 5.24402C116.362 4.31121 116.211 2.64036 117.107 1.46154C118.18 0.057207 120.281 0.118711 121.301 1.5948C122.001 2.60961 121.992 4.31121 120.857 5.24402C120.343 5.66429 119.767 5.85905 119.137 5.83855Z" fill="white"/>
</svg>
