<svg width="180" height="38" viewBox="0 0 180 38" fill="none" xmlns="http://www.w3.org/2000/svg">
<path d="M2.26997 32.5796L0.649599 30.2444H2.19373L3.06106 31.5311L3.91886 30.2444H5.41533L3.79496 32.551L5.61546 35.1721H4.07143L3.04202 33.6186L2.01264 35.1721H0.497131L2.26997 32.5796Z" fill="white"/>
<path d="M12.0274 32.2547H7.21408V31.2349H12.0274V32.2547ZM12.0274 34.2945H7.21408V33.2746H12.0274V34.2945Z" fill="white"/>
<path d="M15.717 29.4814H14.3636V28.3662H15.717V29.4814ZM14.3636 30.2439H15.717V35.1716H14.3636V30.2439Z" fill="white"/>
<path d="M16.5948 30.2441H17.8816V30.9303H17.9102C18.0703 30.6765 18.2928 30.4679 18.5564 30.3244C18.82 30.181 19.116 30.1074 19.4161 30.1107C20.8553 30.1107 21.2175 30.9208 21.2175 32.1408V35.1718H19.8641V32.3886C19.8641 31.5785 19.6258 31.1782 18.9967 31.1782C18.2628 31.1782 17.9483 31.588 17.9483 32.5889V35.1718H16.5948V30.2441Z" fill="white"/>
<path d="M25.5729 34.5426H25.5538C25.2393 35.0762 24.6865 35.305 24.0574 35.305C22.5705 35.305 21.8462 34.0278 21.8462 32.6649C21.8462 31.34 22.5801 30.1105 24.0288 30.1105C24.3152 30.1012 24.5994 30.1634 24.8557 30.2916C25.112 30.4197 25.3323 30.6097 25.4966 30.8444H25.5062V28.3662H26.8596V35.1716H25.5729V34.5426ZM24.391 31.1304C23.5046 31.1304 23.1996 31.8928 23.1996 32.703C23.1996 33.475 23.5523 34.2851 24.391 34.2851C25.2869 34.2851 25.5538 33.5037 25.5538 32.6934C25.5538 31.8928 25.2679 31.1304 24.391 31.1304Z" fill="white"/>
<path d="M28.7997 33.0367C28.8377 33.8945 29.2571 34.2853 30.0101 34.2853C30.5533 34.2853 30.9919 33.9517 31.0776 33.6467H32.2691C31.8877 34.8095 31.0776 35.3051 29.9625 35.3051C28.4088 35.3051 27.4462 34.2377 27.4462 32.7127C27.4462 31.2352 28.466 30.1106 29.9625 30.1106C31.6399 30.1106 32.4502 31.5212 32.3548 33.0367H28.7997ZM31.0014 32.1789C30.8775 31.4927 30.582 31.1305 29.9243 31.1305C29.7809 31.1226 29.6375 31.1438 29.5025 31.1927C29.3675 31.2417 29.2438 31.3174 29.1388 31.4153C29.0338 31.5132 28.9496 31.6313 28.8913 31.7625C28.833 31.8937 28.8019 32.0353 28.7997 32.1789H31.0014Z" fill="white"/>
<path d="M32.9677 30.2438H34.2545V30.873H34.2735C34.4286 30.6272 34.6463 30.427 34.9042 30.293C35.1622 30.159 35.4511 30.096 35.7414 30.1104C37.2854 30.1104 37.9812 31.3591 37.9812 32.7601C37.9812 34.0754 37.2568 35.305 35.8176 35.305C35.5291 35.3125 35.2432 35.2486 34.9855 35.1189C34.7277 34.9892 34.5061 34.7977 34.3402 34.5615H34.3212V36.9062H32.9677V30.2438ZM36.6277 32.722C36.6277 31.9404 36.3132 31.1303 35.4459 31.1303C34.5595 31.1303 34.2735 31.9214 34.2735 32.722C34.2735 33.5226 34.5785 34.2851 35.4554 34.2851C36.3419 34.2851 36.6277 33.5226 36.6277 32.722Z" fill="white"/>
<path d="M39.7167 33.0367C39.7548 33.8945 40.1742 34.2853 40.9272 34.2853C41.4704 34.2853 41.9089 33.9517 41.9947 33.6467H43.1861C42.8048 34.8095 41.9946 35.3051 40.8795 35.3051C39.3259 35.3051 38.3633 34.2377 38.3633 32.7127C38.3633 31.2352 39.3831 30.1106 40.8795 30.1106C42.557 30.1106 43.3672 31.5212 43.2718 33.0367H39.7167ZM41.9184 32.1789C41.7945 31.4927 41.499 31.1305 40.8413 31.1305C40.698 31.1226 40.5545 31.1438 40.4195 31.1927C40.2846 31.2417 40.1608 31.3174 40.0558 31.4153C39.9508 31.5132 39.8666 31.6313 39.8084 31.7625C39.7501 31.8937 39.7189 32.0353 39.7167 32.1789H41.9184Z" fill="white"/>
<path d="M43.8795 30.2441H45.1663V30.9303H45.1948C45.355 30.6765 45.5775 30.4679 45.8411 30.3244C46.1047 30.181 46.4007 30.1074 46.7008 30.1107C48.14 30.1107 48.5022 30.9208 48.5022 32.1408V35.1718H47.1487V32.3886C47.1487 31.5785 46.9104 31.1782 46.2814 31.1782C45.5475 31.1782 45.233 31.588 45.233 32.5889V35.1718H43.8795V30.2441Z" fill="white"/>
<path d="M52.8602 34.5426H52.8412C52.5267 35.0762 51.9739 35.305 51.3447 35.305C49.8579 35.305 49.1335 34.0278 49.1335 32.6649C49.1335 31.34 49.8674 30.1105 51.3162 30.1105C51.6026 30.1012 51.8867 30.1634 52.143 30.2916C52.3993 30.4197 52.6196 30.6097 52.784 30.8444H52.7935V28.3662H54.1469V35.1716H52.8602V34.5426ZM51.6784 31.1304C50.7919 31.1304 50.4869 31.8928 50.4869 32.703C50.4869 33.475 50.8396 34.2851 51.6784 34.2851C52.5742 34.2851 52.8412 33.5037 52.8412 32.6934C52.8412 31.8928 52.5552 31.1304 51.6784 31.1304Z" fill="white"/>
<path d="M56.0896 33.0367C56.1277 33.8945 56.5471 34.2853 57.3001 34.2853C57.8433 34.2853 58.2818 33.9517 58.3676 33.6467H59.559C59.1777 34.8095 58.3676 35.3051 57.2524 35.3051C55.6988 35.3051 54.7362 34.2377 54.7362 32.7127C54.7362 31.2352 55.756 30.1106 57.2524 30.1106C58.9299 30.1106 59.7401 31.5212 59.6448 33.0367H56.0896ZM58.2913 32.1789C58.1674 31.4927 57.872 31.1305 57.2143 31.1305C57.0709 31.1226 56.9274 31.1438 56.7925 31.1927C56.6575 31.2417 56.5338 31.3174 56.4287 31.4153C56.3237 31.5132 56.2396 31.6313 56.1813 31.7625C56.123 31.8937 56.0918 32.0353 56.0896 32.1789H58.2913Z" fill="white"/>
<path d="M60.255 30.2441H61.5418V30.9303H61.5704C61.7305 30.6765 61.953 30.4679 62.2166 30.3244C62.4803 30.181 62.7762 30.1074 63.0763 30.1107C64.5155 30.1107 64.8777 30.9208 64.8777 32.1408V35.1718H63.5243V32.3886C63.5243 31.5785 63.286 31.1782 62.657 31.1782C61.9231 31.1782 61.6085 31.588 61.6085 32.5889V35.1718H60.255V30.2441Z" fill="white"/>
<path d="M67.4279 30.2439H68.4191V31.1494H67.4279V33.5894C67.4279 34.047 67.5422 34.1613 67.9997 34.1613C68.1404 34.1628 68.281 34.15 68.4191 34.1232V35.1812C68.157 35.2172 67.8925 35.2331 67.628 35.2288C66.7987 35.2288 66.0744 35.0382 66.0744 34.0565V31.1494H65.2547V30.2439H66.0744V28.7666H67.4279V30.2439Z" fill="white"/>
<path d="M68.9147 28.3662H70.2681V35.1716H68.9147V28.3662Z" fill="white"/>
<path d="M73.5766 35.7916C73.2811 36.5828 72.8142 36.9067 71.88 36.9067C71.603 36.9051 71.3262 36.8892 71.0509 36.8591V35.7439C71.3135 35.7744 71.5776 35.7903 71.842 35.7916C72.3089 35.7439 72.4615 35.2578 72.3089 34.8671L70.5743 30.2444H72.0231L73.1382 33.6186H73.1572L74.2343 30.2444H75.6354L73.5766 35.7916Z" fill="white"/>
<path d="M80.7564 30.1106C82.3099 30.1106 83.3107 31.14 83.3107 32.7127C83.3107 34.2757 82.3099 35.3051 80.7564 35.3051C79.2122 35.3051 78.2115 34.2757 78.2115 32.7127C78.2115 31.14 79.2122 30.1106 80.7564 30.1106ZM80.7564 34.2853C81.6809 34.2853 81.9572 33.4942 81.9572 32.7127C81.9572 31.9216 81.6809 31.1305 80.7564 31.1305C79.8413 31.1305 79.5649 31.9216 79.5649 32.7127C79.5649 33.4942 79.8413 34.2853 80.7564 34.2853Z" fill="white"/>
<path d="M83.8011 30.244H85.0879V31.159H85.1069C85.2404 30.8515 85.4598 30.589 85.7388 30.403C86.0177 30.2171 86.3444 30.1155 86.6796 30.1106C86.7799 30.1117 86.8795 30.1278 86.975 30.1583V31.4163C86.8149 31.3845 86.6521 31.3685 86.4889 31.3688C85.4977 31.3688 85.1546 32.0835 85.1546 32.951V35.1717H83.8011V30.244Z" fill="white"/>
<path d="M92.057 34.8572C92.057 35.6673 91.771 37.0398 89.5026 37.0398C88.5304 37.0398 87.3962 36.5824 87.3295 35.4577H88.6734C88.7973 35.9628 89.2071 36.1345 89.6837 36.1345C90.4367 36.1345 90.7798 35.6196 90.7702 34.9144V34.2662H90.7512C90.5934 34.5116 90.3738 34.7113 90.1145 34.8451C89.8552 34.979 89.5653 35.0423 89.2738 35.0288C87.7964 35.0288 87.1674 33.904 87.1674 32.5506C87.1674 31.2734 87.9013 30.1106 89.2834 30.1106C89.9315 30.1106 90.4271 30.3299 90.7512 30.9017H90.7702V30.244H92.057V34.8572ZM90.7702 32.646C90.7702 31.8452 90.4938 31.1305 89.617 31.1305C88.8545 31.1305 88.5208 31.7977 88.5208 32.5316C88.5208 33.2368 88.7877 34.0089 89.617 34.0089C90.389 34.0089 90.7702 33.3512 90.7702 32.646Z" fill="white"/>
<path d="M92.7051 31.7595C92.7813 30.4918 93.9155 30.1106 95.0211 30.1106C96.0029 30.1106 97.1847 30.3299 97.1847 31.5117V34.0756C97.1847 34.5235 97.2324 34.9716 97.3563 35.1717H95.9838C95.9329 35.0173 95.9009 34.8573 95.8885 34.6951C95.6672 34.903 95.4063 35.0642 95.1213 35.169C94.8364 35.2738 94.5332 35.3201 94.23 35.3051C93.296 35.3051 92.5525 34.8382 92.5525 33.8278C92.5525 32.7127 93.3913 32.4457 94.23 32.3313C95.0593 32.2074 95.8313 32.2361 95.8313 31.6833C95.8313 31.1018 95.431 31.0161 94.9544 31.0161C94.4397 31.0161 94.1061 31.2257 94.0585 31.7595H92.7051ZM95.8313 32.7602C95.6025 32.9605 95.126 32.97 94.7066 33.0462C94.2872 33.1321 93.9059 33.275 93.9059 33.7706C93.9059 34.2757 94.2968 34.3996 94.7352 34.3996C95.7932 34.3996 95.8313 33.561 95.8313 33.2655V32.7602Z" fill="white"/>
<path d="M98.0399 30.2441H99.3267V30.9303H99.3552C99.5154 30.6765 99.7379 30.4679 100.001 30.3244C100.265 30.181 100.561 30.1074 100.861 30.1107C102.3 30.1107 102.663 30.9208 102.663 32.1408V35.1718H101.309V32.3886C101.309 31.5785 101.071 31.1782 100.442 31.1782C99.7079 31.1782 99.3934 31.588 99.3934 32.5889V35.1718H98.0399V30.2441Z" fill="white"/>
<path d="M104.705 29.4814H103.352V28.3662H104.705V29.4814ZM103.352 30.2439H104.705V35.1716H103.352V30.2439Z" fill="white"/>
<path d="M105.276 34.1522L107.84 31.2643H105.467V30.2444H109.622V31.2643L107.058 34.1522H109.803V35.1721H105.276V34.1522Z" fill="white"/>
<path d="M111.451 33.0367C111.489 33.8945 111.908 34.2853 112.661 34.2853C113.204 34.2853 113.643 33.9517 113.729 33.6467H114.92C114.539 34.8095 113.729 35.3051 112.613 35.3051C111.06 35.3051 110.097 34.2377 110.097 32.7127C110.097 31.2352 111.117 30.1106 112.613 30.1106C114.291 30.1106 115.101 31.5212 115.006 33.0367H111.451ZM113.652 32.1789C113.529 31.4927 113.233 31.1305 112.575 31.1305C112.432 31.1226 112.289 31.1438 112.154 31.1927C112.019 31.2417 111.895 31.3174 111.79 31.4153C111.685 31.5132 111.601 31.6313 111.542 31.7625C111.484 31.8937 111.453 32.0353 111.451 32.1789H113.652Z" fill="white"/>
<path d="M119.136 34.5426H119.117C118.802 35.0762 118.25 35.305 117.62 35.305C116.133 35.305 115.409 34.0278 115.409 32.6649C115.409 31.34 116.143 30.1105 117.592 30.1105C117.878 30.1012 118.162 30.1634 118.419 30.2916C118.675 30.4197 118.895 30.6097 119.06 30.8444H119.069V28.3662H120.423V35.1716H119.136V34.5426ZM117.954 31.1304C117.068 31.1304 116.763 31.8928 116.763 32.703C116.763 33.475 117.115 34.2851 117.954 34.2851C118.85 34.2851 119.117 33.5037 119.117 32.6934C119.117 31.8928 118.831 31.1304 117.954 31.1304Z" fill="white"/>
<path d="M125.358 29.6244H123.319V28.3662H128.895V29.6244H126.855V35.1716H125.358V29.6244Z" fill="white"/>
<path d="M129.485 28.3662H134.575V29.6244H130.982V31.0827H134.28V32.2455H130.982V33.9134H134.651V35.1716H129.485V28.3662Z" fill="white"/>
<path d="M135.279 28.3662H138.215C139.978 28.3662 141.303 29.4719 141.303 31.7308C141.303 33.7038 140.293 35.1716 138.215 35.1716H135.279V28.3662ZM136.776 33.9134H138.11C138.978 33.9134 139.807 33.3798 139.807 31.8738C139.807 30.5012 139.33 29.6244 137.843 29.6244H136.776V33.9134Z" fill="white"/>
<path d="M145.581 33.0367C145.619 33.8945 146.038 34.2853 146.791 34.2853C147.335 34.2853 147.773 33.9517 147.859 33.6467H149.05C148.669 34.8095 147.859 35.3051 146.744 35.3051C145.19 35.3051 144.227 34.2377 144.227 32.7127C144.227 31.2352 145.247 30.1106 146.744 30.1106C148.421 30.1106 149.231 31.5212 149.136 33.0367H145.581ZM147.783 32.1789C147.659 31.4927 147.363 31.1305 146.706 31.1305C146.562 31.1226 146.419 31.1438 146.284 31.1927C146.149 31.2417 146.025 31.3174 145.92 31.4153C145.815 31.5132 145.731 31.6313 145.673 31.7625C145.614 31.8937 145.583 32.0353 145.581 32.1789H147.783Z" fill="white"/>
<path d="M152.281 35.1721H150.775L149.088 30.2444H150.508L151.547 33.6089H151.566L152.605 30.2444H153.949L152.281 35.1721Z" fill="white"/>
<path d="M155.242 33.0367C155.28 33.8945 155.7 34.2853 156.453 34.2853C156.996 34.2853 157.434 33.9517 157.52 33.6467H158.711C158.33 34.8095 157.52 35.3051 156.405 35.3051C154.851 35.3051 153.889 34.2377 153.889 32.7127C153.889 31.2352 154.909 30.1106 156.405 30.1106C158.082 30.1106 158.893 31.5212 158.797 33.0367H155.242ZM157.444 32.1789C157.32 31.4927 157.025 31.1305 156.367 31.1305C156.223 31.1226 156.08 31.1438 155.945 31.1927C155.81 31.2417 155.686 31.3174 155.581 31.4153C155.476 31.5132 155.392 31.6313 155.334 31.7625C155.276 31.8937 155.244 32.0353 155.242 32.1789H157.444Z" fill="white"/>
<path d="M159.41 30.2441H160.697V30.9303H160.726C160.886 30.6765 161.108 30.4679 161.372 30.3245C161.635 30.181 161.931 30.1074 162.231 30.1107C163.671 30.1107 164.033 30.9208 164.033 32.1408V35.1718H162.68V32.3886C162.68 31.5785 162.441 31.1782 161.812 31.1782C161.078 31.1782 160.764 31.588 160.764 32.5889V35.1718H159.41V30.2441Z" fill="white"/>
<path d="M166.588 30.2439H167.579V31.1494H166.588V33.5894C166.588 34.047 166.703 34.1613 167.16 34.1613C167.301 34.1628 167.441 34.15 167.579 34.1232V35.1812C167.317 35.2172 167.053 35.2331 166.788 35.2288C165.959 35.2288 165.235 35.0382 165.235 34.0565V31.1494H164.415V30.2439H165.235V28.7666H166.588V30.2439Z" fill="white"/>
<path d="M6.35023 5.85114H0V0.043457H19.675V5.85114H13.3271V22.7029H6.35023V5.85114Z" fill="white"/>
<path d="M20.7591 0.043457H39.8586V5.85114H27.7405V8.67478H39.8586V14.0716H27.7405V16.8955H39.8618V22.7029H20.7591V0.043457Z" fill="white"/>
<path d="M41.0306 0.043457H52.4872C60.039 0.043457 62.7079 5.62917 62.7079 11.3399C62.7079 18.2921 59.0266 22.7029 51.1239 22.7029H41.0306V0.043457ZM48.0116 16.8955H50.7419C55.0908 16.8955 55.7267 13.3716 55.7267 11.243C55.7267 9.81761 55.28 5.85114 50.2335 5.85114H48.0116V16.8955Z" fill="white"/>
<path d="M72.742 13.971L70.6123 10.4395L68.5356 13.971H63.4205L68.2765 6.83026L63.6006 0H68.7174L70.6123 3.37624L72.5615 0H77.6769L73.0025 6.83026L77.8584 13.971H72.742Z" fill="white"/>
<path d="M83.0903 0.251953H86.0272V21.9081H83.0903V0.251953Z" fill="white"/>
<path d="M91.404 0.251953H94.3408V21.9081H91.404V0.251953Z" fill="white"/>
<path d="M114.683 0.251953V2.83186H107.45V21.9081H104.499V2.83186H97.2662V0.251953H114.683Z" fill="white"/>
<path d="M117.687 0.251953H127.623C129.259 0.251953 130.608 0.492756 131.67 0.974358C133.686 1.89825 134.695 3.60342 134.695 6.08985C134.695 7.38713 134.429 8.44855 133.898 9.27413C133.343 10.1215 132.575 10.8079 131.67 11.2643C132.411 11.5381 133.065 12.0067 133.562 12.6206C133.986 13.1808 134.222 14.0899 134.271 15.3479L134.373 18.2521C134.378 18.8717 134.446 19.4893 134.578 20.0948C134.753 20.7828 135.065 21.2251 135.513 21.4216V21.9081H131.948C131.836 21.6794 131.758 21.4363 131.714 21.1857C131.63 20.6192 131.581 20.0481 131.568 19.4756L131.392 15.8638C131.324 14.4486 130.803 13.5002 129.829 13.0186C129.274 12.7533 128.402 12.6206 127.214 12.6206H120.595V21.9081H117.687V0.251953ZM127.316 10.1734C128.68 10.1734 129.758 9.89824 130.552 9.34783C131.346 8.79753 131.743 7.80491 131.743 6.36996C131.743 4.82708 131.188 3.77548 130.078 3.21518C129.483 2.92032 128.689 2.77289 127.696 2.77289H120.595V10.1734H127.316Z" fill="white"/>
<path d="M145.187 0.251953H148.474L156.262 21.9081H153.077L150.9 15.4216H142.41L140.087 21.9081H137.107L145.187 0.251953ZM149.965 13.0334L146.706 3.46571L143.243 13.0334H149.965Z" fill="white"/>
<path d="M158.836 0.251953H163L169.166 18.5617L175.288 0.251953H179.409V21.9081H176.647V9.12669C176.647 8.6845 176.657 7.95234 176.676 6.9302C176.696 5.90812 176.705 4.81227 176.705 3.64262L170.583 21.9081H167.705L161.539 3.64262V4.30605C161.539 4.8368 161.551 5.64515 161.575 6.73111C161.6 7.81718 161.612 8.61571 161.612 9.12669V21.9081H158.836V0.251953Z" fill="white"/>
</svg>
