<svg width="209" height="47" viewBox="0 0 209 47" fill="none" xmlns="http://www.w3.org/2000/svg">
<g clip-path="url(#clip0_51_373)">
<path d="M0 0.460205H2.1067L6.79663 8.00221L11.4113 0.460205H13.528L7.72458 10.0027V18.7301H5.91632V10.0027L0 0.460205Z" fill="white"/>
<path d="M30.8833 6.96648e-05C33.6571 6.96648e-05 35.9795 0.923648 37.8504 2.77081C38.7628 3.65428 39.4826 4.71582 39.9651 5.88913C40.4475 7.06245 40.6822 8.32233 40.6544 9.59012C40.6779 10.855 40.4418 12.1114 39.9605 13.282C39.4792 14.4525 38.7628 15.5126 37.8554 16.3969C36.9699 17.303 35.9074 18.0183 34.7337 18.4987C33.5599 18.9792 32.2998 19.2145 31.0312 19.1902C29.7552 19.2176 28.4869 18.9852 27.304 18.507C26.1211 18.0289 25.0485 17.3151 24.1519 16.4094C23.246 15.5387 22.5295 14.4916 22.0467 13.3331C21.5639 12.1746 21.3252 10.9295 21.3454 9.67514C21.3339 7.96421 21.7751 6.28051 22.6245 4.79384C23.4484 3.33403 24.6483 2.12004 26.1002 1.27729C27.5521 0.434551 29.2033 -0.00637585 30.8833 6.96648e-05ZM30.9635 1.77554C29.6064 1.77506 28.2745 2.14056 27.1088 2.83332C25.921 3.51 24.9377 4.49297 24.2622 5.67908C23.572 6.89895 23.2188 8.27966 23.2389 9.68014C23.2171 10.7024 23.4062 11.7183 23.7944 12.6646C24.1827 13.611 24.7619 14.4677 25.4961 15.1816C26.2049 15.9072 27.0546 16.4811 27.9934 16.8681C28.9322 17.2551 29.9403 17.447 30.956 17.4322C32.341 17.4414 33.7038 17.0851 34.9061 16.3994C36.0961 15.7315 37.0784 14.7495 37.7451 13.5612C38.4276 12.3467 38.7779 10.9747 38.7608 9.58262C38.7789 8.20473 38.4283 6.84693 37.7451 5.64907C37.061 4.47133 36.0717 3.49877 34.881 2.83332C33.6926 2.13989 32.3404 1.77476 30.9635 1.77554Z" fill="white"/>
<path d="M50.0041 0.460205H51.8375V11.5031C51.8194 12.3191 51.8437 13.1354 51.9102 13.9488C51.9754 14.5926 52.1938 15.2116 52.5472 15.7543C52.9411 16.2881 53.4699 16.7083 54.0796 16.9721C54.7263 17.292 55.4368 17.4629 56.1587 17.4722C56.7651 17.4738 57.3645 17.3423 57.9143 17.0871C58.4523 16.8358 58.9258 16.4655 59.2987 16.0043C59.6873 15.5178 59.9678 14.9543 60.1213 14.3514C60.245 13.8896 60.3069 12.9377 60.3069 11.4956V0.460205H62.1377V11.5031C62.1377 13.1336 61.978 14.4523 61.6587 15.4592C61.3067 16.5111 60.6365 17.4284 59.7401 18.0849C58.742 18.8432 57.5134 19.2377 56.259 19.2027C54.9148 19.2407 53.5904 18.8728 52.4594 18.1474C51.443 17.4954 50.692 16.5046 50.3402 15.3517C50.117 14.6415 50.0041 13.3511 50.0041 11.5031V0.460205Z" fill="white"/>
<path d="M72.3602 0.460205H76.0093C78.0458 0.460205 79.4244 0.543561 80.145 0.710272C81.1845 0.930426 82.1192 1.49334 82.7985 2.3082C83.492 3.15818 83.8552 4.22878 83.8217 5.324C83.8406 6.24808 83.5962 7.15854 83.117 7.9497C82.6391 8.71078 81.9389 9.30769 81.1106 9.66015C80.2345 10.0436 79.0298 10.2411 77.4966 10.2528L84.0825 18.7301H81.8254L75.2394 10.2528H74.2036V18.7301H72.3728L72.3602 0.460205ZM74.1911 2.25068V8.45983L77.3486 8.48484C78.5692 8.48484 79.4737 8.36898 80.0622 8.13725C80.6273 7.92249 81.1082 7.53239 81.4341 7.02445C81.7656 6.51648 81.9401 5.92254 81.9357 5.3165C81.9399 4.72219 81.7651 4.14031 81.4341 3.64605C81.1196 3.16039 80.6611 2.78453 80.1224 2.57077C79.5782 2.35571 78.6778 2.25068 77.4238 2.25068H74.1911Z" fill="white"/>
<path d="M104.595 0.460205H108.345L111.763 7.03195L115.161 0.460205H118.858L113.496 10.818V18.7301H109.985V10.818L104.595 0.460205Z" fill="white"/>
<path d="M132.923 0.460205H136.459L143.507 18.7301H139.88L138.44 14.9666H130.969L129.479 18.7301H125.853L132.923 0.460205ZM134.714 5.30399L132.256 11.5757H137.159L134.714 5.30399Z" fill="white"/>
<path d="M168.659 3.67087L166.219 6.00149C164.559 4.25435 162.692 3.37996 160.619 3.37829C159.798 3.36719 158.984 3.52007 158.224 3.8279C157.464 4.13573 156.773 4.59227 156.193 5.17057C155.613 5.74887 155.155 6.43721 154.846 7.19496C154.537 7.95271 154.383 8.76451 154.394 9.58244C154.372 10.7168 154.646 11.8373 155.191 12.8333C155.718 13.7726 156.501 14.5442 157.448 15.0589C158.44 15.6024 159.555 15.8806 160.686 15.8666C161.641 15.8787 162.587 15.6859 163.46 15.3015C164.296 14.9247 165.216 14.2387 166.219 13.2434L168.584 15.7041C167.23 17.0228 165.951 17.9397 164.747 18.4548C163.437 18.9786 162.035 19.2337 160.624 19.205C157.781 19.205 155.45 18.3048 153.629 16.5043C151.808 14.7038 150.901 12.3907 150.908 9.56493C150.875 7.86456 151.303 6.18694 152.147 4.70864C152.995 3.26881 154.222 2.08761 155.695 1.29273C157.213 0.436573 158.93 -0.00910309 160.674 -0.00011071C162.191 0.00419981 163.69 0.33431 165.068 0.967764C166.446 1.60122 167.67 2.52316 168.659 3.67087Z" fill="white"/>
<path d="M177.314 0.460205H180.85V7.35454H186.967V0.460205H190.494V18.7301H186.965V10.7279H180.848V18.7301H177.314V0.460205Z" fill="white"/>
<path d="M198.482 0.460205H208.611V3.88862H205.271V18.7301H201.734V3.88862H198.474L198.482 0.460205Z" fill="white"/>
<path d="M102.381 29.4129C104.465 28.4542 106.63 27.681 108.851 27.1023C111.092 26.4984 113.364 26.0192 115.658 25.6669C120.284 24.9613 124.964 24.665 129.642 24.7817C134.329 24.894 138.999 25.3731 143.609 26.2146C144.758 26.4271 145.907 26.6547 147.053 26.8772C148.199 27.0998 149.262 27.3524 150.373 27.5674C152.578 28.0201 154.795 28.4227 157.015 28.7903C161.454 29.5179 165.918 30.0606 170.395 30.3507C172.632 30.4932 174.871 30.5557 177.109 30.5632L178.786 30.5457L180.462 30.4882C181.575 30.4382 182.694 30.3832 183.802 30.2807C188.248 29.9441 192.645 29.1274 196.914 27.845C199.043 27.1932 201.125 26.3978 203.146 25.4644C205.171 24.5218 207.128 23.4406 209.002 22.2285C205.893 25.3368 202 27.8475 197.759 29.708C193.518 31.5685 188.916 32.7738 184.261 33.479C179.597 34.1546 174.881 34.4057 170.171 34.2292C167.824 34.1542 165.487 33.9791 163.149 33.7491C160.812 33.519 158.509 33.1789 156.207 32.8188C153.912 32.4212 151.625 31.9986 149.36 31.501C148.232 31.2509 147.103 30.9708 145.984 30.7233C144.866 30.4757 143.805 30.2581 142.704 30.0081L141.886 29.823C141.613 29.7605 141.342 29.698 141.066 29.6555L139.411 29.3629L137.758 29.0678L136.933 28.9153C136.657 28.8653 136.379 28.8353 136.101 28.7953L132.767 28.3351C132.489 28.2901 132.211 28.2651 131.93 28.2376L131.092 28.1551L129.414 27.99C124.92 27.5797 120.403 27.4694 115.894 27.66C115.327 27.6875 114.758 27.69 114.196 27.74L112.498 27.87C111.931 27.9 111.367 27.965 110.803 28.0276C110.238 28.0901 109.669 28.1351 109.107 28.2126L107.414 28.4427L105.726 28.7127C104.615 28.9128 103.489 29.1253 102.381 29.4129Z" fill="white"/>
<path d="M120.481 37.6199C121.937 37.043 123.435 36.579 124.963 36.232C126.492 35.8719 128.05 35.5744 129.617 35.3643C132.769 34.9365 135.948 34.746 139.128 34.7942C139.923 34.8167 140.72 34.8292 141.515 34.8592L143.9 35.0242L144.495 35.0667L145.089 35.1292L146.275 35.2618C147.065 35.3568 147.858 35.4318 148.64 35.5694L150.995 35.9445L153.285 36.3421C154.805 36.5921 156.325 36.8422 157.852 37.0498C159.38 37.2573 160.904 37.4599 162.434 37.6049C163.964 37.7499 165.497 37.895 167.029 37.98C168.561 38.065 170.096 38.1175 171.629 38.1325C173.161 38.1476 174.693 38.1 176.221 38.01C179.275 37.849 182.307 37.4121 185.282 36.7047C186.766 36.3438 188.227 35.8962 189.658 35.3643C190.02 35.2368 190.366 35.0817 190.724 34.9442C191.083 34.8067 191.422 34.6341 191.775 34.4841C192.129 34.334 192.465 34.1565 192.813 33.9839L193.837 33.4563C193.543 33.7064 193.25 33.9314 192.946 34.1615C192.643 34.3916 192.329 34.6116 192.013 34.8267C191.373 35.2518 190.713 35.6536 190.035 36.032C188.66 36.7881 187.227 37.4361 185.751 37.97C182.75 39.0398 179.637 39.768 176.472 40.1406C173.298 40.5253 170.099 40.6658 166.904 40.5607C165.308 40.5257 163.721 40.4107 162.138 40.2831C160.556 40.1556 158.978 39.953 157.408 39.7455C155.838 39.5379 154.278 39.2653 152.726 38.9778L150.411 38.5302L148.154 38.1075C145.144 37.5874 142.092 37.1473 139.022 36.9247C135.945 36.6791 132.856 36.5998 129.77 36.6872C126.654 36.7533 123.548 37.0652 120.481 37.6199Z" fill="white"/>
<path d="M138.691 45.1921C140.159 44.5669 141.7 44.13 143.278 43.8917C144.869 43.6367 146.478 43.5096 148.089 43.5116C149.708 43.511 151.326 43.6246 152.929 43.8517L154.125 44.0368L155.277 44.2243C156.029 44.3643 156.801 44.4744 157.564 44.5794L158.707 44.7269L159.279 44.802L159.854 44.857C160.235 44.8945 160.606 44.9445 161 44.972C161.394 44.9995 161.752 45.027 162.146 45.0595C163.672 45.1616 165.202 45.1849 166.73 45.1295C169.778 45.007 172.815 44.4619 175.639 43.104C174.459 44.1486 173.1 44.972 171.626 45.5346C170.11 46.1197 168.53 46.5218 166.919 46.7325C165.305 46.9485 163.678 47.0387 162.051 47.0025C160.436 46.9582 158.825 46.8254 157.225 46.6049C156.435 46.4774 155.638 46.3549 154.853 46.2073L152.553 45.7622C151.048 45.4896 149.543 45.2621 148.001 45.117C146.458 44.972 144.924 44.8945 143.371 44.897C141.806 44.8843 140.242 44.9829 138.691 45.1921Z" fill="white"/>
</g>
<defs>
<clipPath id="clip0_51_373">
<rect width="209" height="47" fill="white"/>
</clipPath>
</defs>
</svg>
