<svg width="136" height="46" viewBox="0 0 136 46" fill="none" xmlns="http://www.w3.org/2000/svg">
<path d="M95.6694 11.7263C95.8571 11.5858 96.0345 11.432 96.2002 11.2661C99.755 6.77391 107.332 6.9442 111.301 11.2216C113.336 13.4124 114.37 16.0344 114.649 18.9555C115.022 22.7435 114.546 26.378 112.289 29.5876C108.946 34.3436 102.494 35.571 97.8602 32.3492C97.1299 31.8398 96.5147 31.1647 95.7215 30.4544C95.7016 30.8825 95.6724 31.2016 95.6724 31.5207C95.6724 35.9699 95.6525 40.4191 95.6893 44.8683C95.6893 45.6906 95.4546 45.9422 94.6353 45.9192C92.8526 45.864 91.0652 45.9039 89.2794 45.9039C87.9661 45.9039 87.9615 45.9039 87.96 44.609C87.96 36.5606 87.96 28.5111 87.96 20.4606C87.96 16.7785 87.9815 13.0964 87.9477 9.40661C87.9477 8.57047 88.1763 8.26669 89.0523 8.29738C90.921 8.36181 92.7912 8.36181 94.6629 8.29738C95.5144 8.26976 95.7507 8.57507 95.6847 9.37132C95.6218 10.0863 95.6694 10.8119 95.6694 11.7263ZM106.891 21.0328C106.909 20.7217 106.909 20.4097 106.891 20.0985C106.633 17.9046 105.706 16.1096 103.601 15.2013C101.496 14.2931 99.4067 14.4802 97.6378 16.0329C95.786 17.6591 95.4377 19.8484 95.6847 22.1697C96.1327 26.3811 100.49 28.733 104.034 26.6419C106.142 25.4038 106.918 23.3986 106.891 21.0328Z" fill="white"/>
<path d="M31.1917 12.5184H29.7603C27.6921 12.5184 25.6179 12.5414 23.5559 12.4938C23.2015 12.4846 22.7029 12.2637 22.528 11.9829C20.7222 9.06795 18.0236 8.09372 14.7987 8.50643C11.4004 8.93907 9.24483 11.0287 8.35499 14.2505C7.45594 17.523 7.63851 20.7448 9.56241 23.7212C12.3378 28.017 19.7741 28.1995 22.4498 23.5064C22.617 23.2133 23.0189 22.8728 23.3181 22.8666C25.7821 22.8175 28.2475 22.8421 30.7115 22.8513C30.8835 22.879 31.0519 22.9264 31.2132 22.9924C31.0981 23.3867 31.0152 23.7595 30.8848 24.1139C28.7845 29.8335 24.5946 32.9602 18.6618 33.8025C14.366 34.4161 10.2927 33.6797 6.65662 31.2173C3.06503 28.7902 1.0184 25.2922 0.31113 21.0578C-0.331703 17.2069 -0.0371347 13.4098 1.74868 9.86727C4.26939 4.86268 8.4409 2.18548 13.9426 1.49509C18.1478 0.965788 22.0739 1.77125 25.5918 4.16615C28.3933 6.07317 30.1515 8.76877 31.1334 11.9906C31.1635 12.1652 31.183 12.3414 31.1917 12.5184Z" fill="white"/>
<path d="M58.3842 21.0471C58.3842 28.8132 52.8795 34.14 44.8694 34.1323C37.2536 34.1231 31.8501 28.6797 31.9222 20.9565C32.0004 12.8252 37.7736 7.91577 45.3327 7.96026C53.0007 8.00475 58.3873 13.3806 58.3842 21.0471ZM50.5367 21.0133C50.4539 20.3413 50.4125 19.6601 50.2821 18.9974C49.7727 16.4168 47.812 14.7215 45.2529 14.6157C42.878 14.5175 40.8313 16.0532 40.1317 18.5325C39.5906 20.3425 39.6443 22.2784 40.2851 24.0556C40.9955 26.001 42.3778 27.1916 44.4904 27.3879C46.603 27.5843 48.3259 26.8249 49.4981 25.0099C50.2775 23.8025 50.4999 22.434 50.5367 21.0133Z" fill="white"/>
<path d="M76.9044 30.4898C76.781 30.7053 76.6405 30.9106 76.484 31.1034C72.7528 35.0556 65.8581 35.054 62.2373 31.0697C60.2429 28.8727 59.6046 26.1602 59.5893 23.2882C59.5663 18.615 59.5893 13.9402 59.5648 9.26552C59.5648 8.52296 59.8133 8.28669 60.5543 8.30357C62.5089 8.3496 64.4635 8.34653 66.4181 8.30357C67.1054 8.28976 67.2834 8.53677 67.2803 9.1842C67.2588 13.4631 67.2527 17.7405 67.2803 22.0194C67.2792 22.8387 67.4002 23.6536 67.6393 24.4373C68.3926 26.7831 70.5788 27.9368 73.2867 27.5149C75.4607 27.1759 77.1008 25.3271 77.1345 22.9813C77.1959 18.6472 77.1729 14.3115 77.1851 9.97739C77.1851 7.94303 77.1452 8.34653 78.8007 8.32198C80.5573 8.29743 82.314 8.34039 84.0691 8.30664C84.6936 8.2959 84.9237 8.49995 84.9221 9.12897C84.9099 17.0905 84.9099 25.0515 84.9221 33.012C84.9221 33.5873 84.7227 33.8113 84.1259 33.8021C82.0869 33.776 80.0464 33.7714 78.0075 33.8021C77.3508 33.8144 77.1683 33.5444 77.1897 32.9476C77.2174 32.1805 77.1897 31.398 77.1897 30.6232L76.9044 30.4898Z" fill="white"/>
<path d="M124.091 16.883C124.091 22.0656 124.091 27.2486 124.091 32.4322C124.091 34.0063 124.143 33.7731 122.699 33.7823C120.943 33.7931 119.186 33.744 117.432 33.8053C116.595 33.836 116.391 33.5476 116.394 32.7452C116.418 24.8149 116.406 16.8846 116.406 8.95424C116.406 6.29238 116.432 3.629 116.394 0.967146C116.383 0.212315 116.641 -0.0132113 117.374 0.00059662C119.298 0.040486 121.223 0.040486 123.15 0.00059662C123.908 -0.0147455 124.109 0.264479 124.106 0.991694C124.072 6.28932 124.091 11.5869 124.091 16.883Z" fill="white"/>
<path d="M130.024 25.7583C134.093 25.7798 136.224 28.8513 134.771 31.7571C133.951 33.3941 132.5 34.0706 130.742 34.1136C128.901 34.1566 127.367 33.4999 126.514 31.8123C125.746 30.3118 125.888 28.7822 126.906 27.4091C127.266 26.9146 127.734 26.5088 128.274 26.2227C128.814 25.9366 129.413 25.7777 130.024 25.7583Z" fill="white"/>
</svg>
