<svg width="1512" height="783" viewBox="0 0 1512 783" fill="none" xmlns="http://www.w3.org/2000/svg">
<path d="M1164.53 327.651C1165.49 327.651 1166.27 328.432 1166.27 329.393C1166.27 330.354 1165.49 331.134 1164.53 331.134C1163.57 331.134 1162.79 330.354 1162.79 329.393C1162.79 328.432 1163.57 327.651 1164.53 327.651Z" fill="white"/>
<path d="M1345.67 493.545C1347.35 493.545 1348.71 494.911 1348.71 496.593C1348.71 498.275 1347.35 499.641 1345.67 499.641C1343.98 499.641 1342.62 498.275 1342.62 496.593C1342.62 494.911 1343.98 493.545 1345.67 493.545Z" fill="white"/>
<path d="M1273.82 252.324C1275.51 252.324 1276.87 253.69 1276.87 255.372C1276.87 257.054 1275.51 258.42 1273.82 258.42C1272.14 258.42 1270.77 257.054 1270.77 255.372C1270.77 253.69 1272.14 252.324 1273.82 252.324Z" fill="#4F4FC8"/>
<path d="M1204.92 396.012C1206.36 396.012 1207.53 397.182 1207.53 398.624C1207.53 400.066 1206.36 401.237 1204.92 401.237C1203.48 401.237 1202.31 400.066 1202.31 398.624C1202.31 397.182 1203.48 396.012 1204.92 396.012Z" fill="#4F4FC8"/>
<path d="M186.241 374.588C186.287 374.588 186.324 374.625 186.324 374.672C186.324 374.718 186.287 374.755 186.241 374.755C186.195 374.755 186.158 374.718 186.158 374.672C186.158 374.625 186.195 374.588 186.241 374.588Z" fill="#4F4FC8"/>
<path d="M-0.664761 425.969C-78.6114 529.63 -25.141 627.772 14.3094 680.319C37.7293 708.617 99.247 775.633 137.025 740.3C157.51 714.489 160.422 679.829 167.059 648.58C178.607 600.356 179.443 545.875 204.918 502.418C259.961 454.166 250.985 677.854 273.749 704.136C304.542 741.38 326.957 615.698 314.735 597.741C313.323 592.114 307.05 588.685 302.006 592.278C295.499 597.018 298.059 608.749 299.942 615.766C306.475 639.289 341.677 705.567 371.645 688.189C392.745 667.452 390.649 635.268 404.239 609.975C413.932 586.897 439.371 580.811 459.724 594.273C626.359 688.032 830.013 698.355 997.117 598.166C1030.78 580.677 1056.51 554.315 1094.89 547.623C1251.79 527.755 1368.6 681.733 1489.11 758.088C1532.34 786.756 1543.47 760.476 1543.98 714.206C1545.24 667.28 1543 621.268 1528.97 576.263C1496.94 462.565 1406.46 429.157 1318.51 369.457C1264.21 332.797 1186.58 210.437 1274.76 177.177C1312.07 159.74 1358.7 150.751 1394.86 139.9C1497.84 114.662 1538.6 34.772 1533.12 -69L1549.13 -68.4672C1548.52 2.38158 1532.29 52.9078 1503.13 88.5619C1463.63 136.855 1384.97 147.796 1312.68 168.802C1287.06 175.478 1250.97 189.106 1241.72 216.905C1229.78 272.687 1276.09 335.759 1319.43 368.226C1421.46 437.205 1507.81 464.247 1538.97 600.036C1550.15 654.018 1586.22 831.707 1480.56 770.24C1356.8 700.027 1203.55 485.713 1047.76 572.382C887.998 677.494 683.047 704.498 506.273 628.688C484.375 620.75 464.055 608.603 442.247 600.743C406.857 594.339 400.596 664.618 377.421 684.105C348.784 718.576 283.97 621.575 293.688 594.747C297.973 581.914 316.438 582.911 319.761 595.892C332.277 615.268 303.65 745.543 272.239 705.101C255.214 690.037 241.263 463.995 210.565 514.713C182.582 588.993 191.644 678.754 141.018 744.076C71.8107 810.99 -162.637 553.579 -13.0205 418.907L-0.664761 425.969Z" fill="url(#paint0_linear_1_117)"/>
<path d="M25.7823 315.49C25.9125 332.917 11.8899 347.151 -5.53767 347.281C-22.9652 347.411 -37.199 333.389 -37.3292 315.961C-37.4594 298.533 -23.4367 284.3 -6.00918 284.17C11.4184 284.039 25.6521 298.062 25.7823 315.49Z" fill="url(#paint1_linear_1_117)"/>
<mask id="mask0_1_117" style="mask-type:alpha" maskUnits="userSpaceOnUse" x="-38" y="284" width="64" height="64">
<path d="M25.7823 315.49C25.9125 332.917 11.8899 347.151 -5.53767 347.281C-22.9652 347.411 -37.199 333.389 -37.3292 315.961C-37.4594 298.533 -23.4367 284.3 -6.00918 284.17C11.4184 284.039 25.6521 298.062 25.7823 315.49Z" fill="url(#paint2_linear_1_117)"/>
</mask>
<g mask="url(#mask0_1_117)">
<mask id="mask1_1_117" style="mask-type:luminance" maskUnits="userSpaceOnUse" x="-91" y="250" width="164" height="133">
<path d="M-90.2949 285.426L47.1099 250.075L72.0863 347.155L-65.3185 382.506L-90.2949 285.426Z" fill="white"/>
</mask>
<g mask="url(#mask1_1_117)">
<path d="M-88.3311 365.783C-80.8635 363.861 -75.196 363.422 -68.7216 363.675C-60.6775 363.994 -54.7669 366.853 -48.8145 362.137C-37.4615 349.136 -29.1576 366.403 -9.39084 350.083C10.3704 333.772 21.3797 330.144 30.3626 331.017C37.141 331.678 46.035 331.309 48.9683 330.61M-93.7368 354.458C-78.0752 353.717 -75.9649 345.61 -59.448 339.776C-42.9291 333.95 -32.0125 347.384 -13.2464 341.998C5.52725 336.611 3.71413 303.661 27.4373 313.458C34.5641 316.401 37.2839 319.483 45.6569 319.224M-95.1508 342.68C-81.3557 345.206 -74.6343 330.698 -63.057 328.627C-56.5744 327.612 -49.3743 327.312 -42.9393 328.897C-35.5006 329.586 -32.2314 333.69 -20.3204 328.181C-8.40748 322.68 -1.41897 304.568 12.2011 300.657C21.6016 298.048 31.4282 307.152 41.9375 307.522M-97.0447 332.1C-77.5775 334.05 -75.4689 311.485 -53.4207 317.835C-45.866 319.626 -37.9689 321.973 -30.5662 319.304C-24.2852 316.979 -18.3326 313.935 -14.9826 307.986C1.94238 280.589 16.3399 294.648 40.1948 296.911M-99.6868 320.686C-82.1052 320.939 -78.5114 300.866 -62.2216 302.288C-56.2426 302.008 -46.623 313.403 -37.3645 299.874C-28.106 286.346 0.544039 282.86 37.2811 285.431M-75.3005 370.567C-79.8483 371.737 -83.803 374.594 -82.3082 379.321C-81.3465 382.378 -75.189 383.596 -69.5732 382.987C-68.8742 382.919 -68.1533 382.781 -67.4289 382.595C-62.3285 381.283 -56.9965 377.466 -57.2979 374.686C-57.645 371.511 -65.3301 369.801 -70.9752 369.956C-72.3813 369.999 -73.8668 370.198 -75.3005 370.567ZM-85.1874 294.383C-84.0076 294.08 -82.3875 293.878 -81.3984 294.658C-80.0596 295.715 -79.3942 297.033 -79.4285 298.57C-79.4981 301.797 -82.52 305.401 -85.4809 307.54C-88.1793 309.492 -91.6649 311.201 -94.3607 311.895C-96.4591 312.435 -97.9075 312.314 -98.3296 311.57C-100.518 307.707 -97.2443 302.358 -93.0235 298.772C-90.5227 296.64 -87.592 295.002 -85.1874 294.383ZM21.7243 341.974C22.0753 341.884 22.4133 341.805 22.7382 341.737C29.2483 340.365 43.8259 340.826 45.3443 344.624C46.0198 346.321 43.6682 348.94 38.7069 352C38.3549 352.21 38.0067 352.435 37.6491 352.654C33.9451 354.969 30.1089 357.357 22.8876 359.215C14.9122 361.267 -0.475298 359.7 -1.44746 355.922C-2.29665 352.621 12.1881 344.428 21.7243 341.974ZM-22.887 294.438C-24.7092 294.907 -26.4746 296.276 -27.4644 298.123C-30.2512 303.291 -39.5613 306.809 -41.0331 310.372C-43.6418 316.697 -36.2281 316.175 -30.1271 314.605C-29.8881 314.543 -29.6566 314.484 -29.4196 314.415C-21.781 312.322 -15.2805 302.155 -17.3882 297.243C-18.5247 294.589 -20.7438 293.886 -22.887 294.438ZM16.8396 318.222C11.9857 319.471 9.48184 324.996 9.77223 328.353C9.91049 329.974 10.9784 330.256 12.3823 329.895C15.0408 329.211 18.9199 326.246 20.2269 325.663C23.6744 324.115 31.4284 322.781 23.6328 319.126C21.0248 317.902 18.7513 317.731 16.8396 318.222ZM-46.3021 273.893C-46.0931 273.839 -45.9098 273.84 -45.7205 273.895C-41.4867 275.218 -48.5648 274.475 -46.3021 273.893Z" stroke="black" stroke-width="0.192771" stroke-miterlimit="10"/>
</g>
</g>
<path d="M61.8934 296.135C60.8704 293.016 44.8011 295.271 22.2428 301.187C22.6725 302.011 23.0624 302.852 23.4186 303.717C36.3715 300.411 45.029 299.074 45.525 300.587C46.0252 302.115 38.0857 306.208 25.4695 311.25C17.1578 314.574 6.80975 318.313 -4.49581 322.003C-15.1807 325.494 -25.1986 328.442 -33.5914 330.633C-47.5484 334.277 -57.0002 335.818 -57.5184 334.232C-58.0324 332.661 -49.6555 328.395 -36.4474 323.164C-36.6679 322.269 -36.8449 321.355 -36.9831 320.432C-59.4609 329.191 -74.4 337.114 -73.3592 340.3C-72.3004 343.54 -55.0213 340.986 -31.0986 334.555C-22.4863 332.24 -13.0159 329.423 -3.12674 326.198C7.31568 322.788 17.1147 319.281 25.7841 315.898C48.1121 307.183 62.9297 299.312 61.8934 296.135Z" fill="#4F4FC8"/>
<path d="M1003.32 618.812C1003.01 639.607 985.9 656.214 965.105 655.903C944.31 655.593 927.703 638.482 928.014 617.687C928.324 596.892 945.435 580.285 966.23 580.595C987.025 580.906 1003.63 598.017 1003.32 618.812Z" fill="#FF635F"/>
<path d="M1003.32 618.812C1003.01 639.607 985.9 656.214 965.105 655.903C944.31 655.593 927.703 638.482 928.014 617.687C928.324 596.892 945.435 580.285 966.23 580.595C987.025 580.906 1003.63 598.017 1003.32 618.812Z" fill="url(#paint3_linear_1_117)"/>
<path d="M1003.16 615.165C1003.24 616.037 1003.27 616.932 1003.28 617.825C1003.3 618.99 1003.26 620.136 1003.17 621.273C1021.62 627.311 1033.48 632.937 1032.77 635.888C1032.04 638.867 1018.7 638.395 999.265 635.213C988.815 633.504 976.6 631.01 963.63 627.863C950.396 624.651 938.168 621.176 927.973 617.833C909.61 611.815 897.816 606.207 898.531 603.256C899.236 600.335 912.069 600.745 930.875 603.748C931.65 601.856 932.592 600.048 933.67 598.327C901.459 593.201 877.915 593.747 876.244 600.622C874.498 607.779 896.909 619.687 929.92 630.232C939.481 633.291 949.934 636.233 960.947 638.906C971.698 641.524 982.093 643.671 991.784 645.329C1026.32 651.234 1052.03 650.976 1053.78 643.779C1055.46 636.846 1034.49 625.457 1003.16 615.165Z" fill="#4F4FC8"/>
<mask id="mask2_1_117" style="mask-type:alpha" maskUnits="userSpaceOnUse" x="928" y="580" width="76" height="76">
<path d="M1003.32 618.812C1003.01 639.607 985.9 656.214 965.105 655.903C944.309 655.593 927.703 638.482 928.013 617.687C928.324 596.892 945.435 580.285 966.23 580.595C987.025 580.906 1003.63 598.017 1003.32 618.812Z" fill="#FF635F"/>
<path d="M1003.32 618.812C1003.01 639.607 985.9 656.214 965.105 655.903C944.309 655.593 927.703 638.482 928.013 617.687C928.324 596.892 945.435 580.285 966.23 580.595C987.025 580.906 1003.63 598.017 1003.32 618.812Z" fill="url(#paint4_linear_1_117)"/>
</mask>
<g mask="url(#mask2_1_117)">
<mask id="mask3_1_117" style="mask-type:luminance" maskUnits="userSpaceOnUse" x="876" y="550" width="173" height="133">
<path d="M890.255 550.647L1048.6 570.733L1034.41 682.608L876.064 662.522L890.255 550.647Z" fill="white"/>
</mask>
<g mask="url(#mask3_1_117)">
<path d="M858.946 635.482C867.552 636.574 873.66 638.468 880.324 641.421C888.603 645.094 893.596 650.537 901.778 648.077C919.046 639.197 920.559 660.699 948.003 651.842C975.437 642.992 988.455 643.769 997.484 648.412C1004.3 651.917 1013.75 655.224 1017.11 655.711M857.996 621.397C874.679 627.125 880.251 619.525 899.943 620.282C919.634 621.049 925.471 639.627 947.328 641.788C969.195 643.949 980.979 608.745 1001.72 628.837C1007.95 634.874 1009.51 639.226 1018.37 642.431M861.407 608.495C874.783 616.863 887.834 604.485 900.799 607.126C907.998 608.756 915.651 611.432 921.721 615.761C929.213 619.571 930.927 625.218 945.669 624.404C960.409 623.598 975.235 607.561 991.1 609.128C1002.01 610.302 1008.51 623.901 1019.34 628.651M863.82 596.647C883.364 606.768 894.938 584.05 915.355 599.843C922.511 604.852 929.793 610.585 938.641 610.868C946.174 611.045 953.662 610.334 959.634 605.504C988.705 583.886 997.922 604.563 1021.93 616.833M865.796 583.615C884.074 591.18 896.166 571.684 912.607 579.934C918.975 582.123 924.303 598.032 939.6 587.73C954.897 577.429 986.301 585.679 1023.64 603.62M870.584 645.895C865.343 645.23 860.022 646.575 859.623 652.138C859.359 655.734 865.291 659.564 871.416 661.259C872.175 661.478 872.986 661.633 873.821 661.739C879.699 662.485 886.858 660.708 887.697 657.676C888.653 654.212 881.327 649.234 875.36 647.052C873.872 646.513 872.236 646.105 870.584 645.895ZM891.877 562.133C893.237 562.306 895.014 562.767 895.724 563.994C896.685 565.655 896.834 567.309 896.16 568.902C894.747 572.247 890.091 574.761 886.108 575.768C882.476 576.689 878.122 577.029 875.015 576.635C872.597 576.328 871.133 575.6 871 574.648C870.316 569.699 875.959 565.466 881.862 563.469C885.362 562.277 889.106 561.782 891.877 562.133ZM983.903 656.282C984.308 656.333 984.694 656.391 985.062 656.455C992.438 657.723 1007.49 664.258 1007.5 668.859C1007.5 670.914 1003.96 672.676 997.497 673.816C997.042 673.889 996.585 673.98 996.12 674.061C991.286 674.943 986.283 675.847 977.961 674.792C968.77 673.626 953.332 665.599 953.884 661.245C954.367 657.441 972.914 654.888 983.903 656.282ZM956.995 588.056C954.895 587.79 952.48 588.489 950.678 590.01C945.619 594.256 934.424 594.069 931.406 597.184C926.052 602.713 934.021 605.245 941.051 606.137C941.327 606.172 941.594 606.206 941.87 606.232C950.726 607.216 961.744 599.283 961.579 593.272C961.493 590.026 959.464 588.37 956.995 588.056ZM988.657 629.419C983.063 628.71 978.152 633.447 977.062 637.077C976.533 638.829 977.533 639.568 979.15 639.773C982.214 640.162 987.501 638.673 989.11 638.606C993.357 638.419 1002.02 640.243 995.385 633.184C993.166 630.822 990.86 629.699 988.657 629.419ZM941.042 556.854C941.283 556.884 941.474 556.961 941.649 557.097C945.527 560.238 938.434 556.523 941.042 556.854Z" stroke="black" stroke-width="0.216868" stroke-miterlimit="10"/>
</g>
</g>
<path d="M249.379 410.118C249.263 410.042 237.695 402.481 233.547 399.928C230.383 397.982 228.461 395.314 228.274 392.614C228.089 389.957 229.484 387.382 232.419 384.958C239.343 379.239 250.1 381.331 250.209 381.355L250.081 381.983C249.974 381.963 239.514 379.93 232.828 385.452C230.062 387.736 228.745 390.131 228.914 392.569C229.087 395.061 230.898 397.544 233.884 399.382C238.04 401.939 249.614 409.506 249.731 409.582L249.379 410.118Z" fill="#161B70"/>
<path d="M255.802 388.552C248.245 387.658 236.627 381.192 236.098 380.896L236.412 380.336C236.55 380.413 250.335 388.096 257.516 388.012L257.522 388.654C256.98 388.659 256.404 388.623 255.802 388.552Z" fill="#161B70"/>
<path d="M1520.3 375.307C1520.46 420.244 1493.4 458.931 1454.64 475.737C1441.47 481.447 1426.96 484.636 1411.7 484.691C1381.04 484.801 1353.3 472.245 1333.42 451.938C1314.27 432.377 1302.43 405.626 1302.32 376.088C1302.1 315.892 1350.73 266.925 1410.92 266.709C1471.11 266.493 1520.08 315.11 1520.3 375.307Z" fill="url(#paint5_linear_1_117)"/>
<path d="M1477.88 265.218C1477.37 265.996 1476.78 266.706 1476.13 267.349C1475.92 267.565 1475.69 267.771 1475.46 267.968C1474.66 268.661 1473.78 269.259 1472.84 269.76C1472.3 270.042 1471.74 270.296 1471.17 270.516C1469.91 271.001 1468.56 271.326 1467.16 271.491C1466.33 271.598 1465.48 271.641 1464.62 271.627C1464.62 271.627 1464.61 271.632 1464.61 271.627C1464.5 271.628 1464.39 271.624 1464.27 271.62C1464 271.614 1463.73 271.597 1463.45 271.58C1463.42 271.581 1463.39 271.577 1463.35 271.572C1463.13 271.555 1462.9 271.532 1462.68 271.511C1462.59 271.503 1462.51 271.494 1462.42 271.475C1462.2 271.454 1461.99 271.422 1461.76 271.385C1461.48 271.345 1461.2 271.294 1460.92 271.239C1460.92 271.244 1460.91 271.244 1460.91 271.239C1460.63 271.179 1460.35 271.119 1460.07 271.054C1459.79 270.988 1459.51 270.915 1459.22 270.835C1458.95 270.755 1458.66 270.67 1458.38 270.581C1457.89 270.426 1457.41 270.252 1456.93 270.063C1456.92 270.058 1456.91 270.053 1456.89 270.048C1456.69 269.968 1456.49 269.888 1456.29 269.798C1456.22 269.765 1456.14 269.732 1456.06 269.694C1455.86 269.609 1455.67 269.518 1455.47 269.423C1455.23 269.309 1454.99 269.19 1454.76 269.066C1454.52 268.948 1454.29 268.824 1454.06 268.691C1453.58 268.423 1453.11 268.132 1452.65 267.827C1452.4 267.665 1452.15 267.498 1451.91 267.32C1451.54 267.057 1451.18 266.784 1450.83 266.506C1450.65 266.367 1450.48 266.224 1450.31 266.079C1450.16 265.96 1450.02 265.835 1449.87 265.705C1448.86 264.803 1447.94 263.837 1447.13 262.816C1447 262.653 1446.88 262.483 1446.75 262.315C1446.12 261.477 1445.56 260.604 1445.08 259.71C1444.91 259.416 1444.77 259.116 1444.62 258.817C1444.58 258.734 1444.54 258.658 1444.51 258.575C1444.45 258.459 1444.39 258.339 1444.34 258.218C1444.28 258.073 1444.21 257.923 1444.15 257.778C1443.97 257.338 1443.81 256.897 1443.67 256.457C1443.63 256.336 1443.59 256.21 1443.55 256.084C1443.55 256.079 1443.55 256.075 1443.55 256.075C1443.51 255.944 1443.47 255.814 1443.43 255.683C1443.42 255.644 1443.41 255.61 1443.4 255.571C1443.35 255.397 1443.3 255.218 1443.26 255.039C1443.22 254.864 1443.18 254.689 1443.15 254.52C1443.11 254.307 1443.06 254.098 1443.03 253.89C1443.01 253.749 1442.99 253.603 1442.96 253.463C1442.96 253.448 1442.96 253.434 1442.96 253.424C1442.93 253.245 1442.91 253.071 1442.9 252.896C1442.87 252.716 1442.86 252.542 1442.85 252.362C1442.84 252.193 1442.82 252.022 1442.82 251.852C1442.8 251.531 1442.8 251.211 1442.81 250.896C1442.86 248.831 1443.32 246.825 1444.24 244.979L1444.24 244.974C1444.48 244.515 1444.73 244.065 1445.02 243.63C1445.48 242.926 1446 242.279 1446.58 241.69C1446.64 241.626 1446.7 241.563 1446.76 241.499C1447.18 241.086 1447.62 240.708 1448.08 240.358C1448.19 240.265 1448.31 240.175 1448.44 240.091C1448.92 239.746 1449.43 239.429 1449.95 239.147C1450.09 239.073 1450.22 239.008 1450.36 238.939C1450.49 238.869 1450.63 238.804 1450.76 238.745C1450.9 238.68 1451.04 238.616 1451.18 238.561C1451.29 238.511 1451.4 238.461 1451.52 238.417C1451.75 238.327 1451.98 238.237 1452.22 238.156C1452.35 238.111 1452.48 238.072 1452.6 238.031C1452.75 237.981 1452.91 237.935 1453.06 237.89C1453.21 237.849 1453.36 237.809 1453.5 237.773C1453.68 237.728 1453.86 237.682 1454.04 237.646C1454.17 237.616 1454.3 237.589 1454.43 237.564C1454.58 237.533 1454.73 237.507 1454.87 237.482C1455.07 237.445 1455.25 237.419 1455.45 237.393C1455.58 237.377 1455.72 237.356 1455.85 237.345C1455.99 237.329 1456.13 237.313 1456.28 237.302C1456.28 237.302 1456.29 237.296 1456.29 237.296C1456.31 237.296 1456.32 237.291 1456.33 237.296C1456.44 237.28 1456.56 237.274 1456.67 237.268C1456.8 237.257 1456.93 237.251 1457.06 237.244C1457.18 237.238 1457.31 237.232 1457.43 237.23C1457.47 237.225 1457.51 237.225 1457.55 237.225L1457.8 237.222C1458.09 237.219 1458.39 237.22 1458.68 237.231C1458.82 237.235 1458.96 237.244 1459.1 237.251C1459.25 237.255 1459.4 237.268 1459.55 237.281C1459.72 237.293 1459.88 237.306 1460.05 237.324C1460.17 237.332 1460.29 237.345 1460.41 237.364C1460.51 237.377 1460.62 237.39 1460.72 237.404C1460.9 237.426 1461.08 237.454 1461.26 237.481C1461.5 237.522 1461.73 237.563 1461.98 237.609C1462.11 237.636 1462.25 237.665 1462.38 237.692C1462.56 237.73 1462.73 237.77 1462.9 237.812C1463.05 237.845 1463.2 237.882 1463.35 237.924C1463.46 237.952 1463.57 237.98 1463.67 238.013C1463.87 238.069 1464.07 238.125 1464.26 238.186C1464.46 238.247 1464.66 238.308 1464.85 238.379C1465.05 238.445 1465.25 238.51 1465.44 238.586C1465.83 238.728 1466.22 238.889 1466.61 239.055C1466.8 239.14 1466.99 239.225 1467.19 239.315C1467.45 239.434 1467.71 239.562 1467.96 239.695C1468.16 239.796 1468.37 239.904 1468.57 240.014C1468.68 240.071 1468.79 240.134 1468.89 240.196C1469.03 240.277 1469.17 240.357 1469.31 240.439C1469.63 240.625 1469.94 240.82 1470.25 241.026C1470.48 241.174 1470.7 241.327 1470.92 241.48C1471.09 241.599 1471.26 241.724 1471.42 241.849C1471.44 241.858 1471.45 241.868 1471.46 241.877C1471.67 242.036 1471.88 242.194 1472.08 242.356C1474.04 243.923 1475.67 245.726 1476.93 247.665C1480.64 253.322 1481.25 260.091 1477.88 265.218Z" fill="#D153BB"/>
<path d="M1477.88 265.217C1473.01 272.618 1461.71 273.79 1452.65 267.827C1446.77 263.966 1443.26 258.054 1442.85 252.362C1445.55 251.507 1450.42 250.871 1457.52 253.33C1457.65 253.392 1465.98 244.17 1476.93 247.665C1480.64 253.322 1481.25 260.09 1477.88 265.217Z" fill="#BB02A5"/>
<mask id="mask4_1_117" style="mask-type:alpha" maskUnits="userSpaceOnUse" x="1364" y="265" width="108" height="73">
<path d="M1447.75 267.528C1448.56 267.829 1466.71 278.861 1471.37 290.462C1472.76 293.941 1468.74 309.295 1465.37 314.545C1462.71 318.691 1449.85 325.728 1438.51 331.36C1427.18 336.991 1414.5 336.754 1401.79 337.622C1380.87 337.415 1360.45 335.928 1365.43 325.244C1369.62 316.243 1378.96 309.04 1387.95 306.094C1397.2 303.164 1402.58 302.054 1400.2 295.548C1397.81 289.266 1402.87 278.047 1407.93 274.471C1411.37 272.032 1416.43 269.174 1422.15 267.242C1424.71 266.375 1439.92 264.62 1447.75 267.528Z" fill="#890396"/>
</mask>
<g mask="url(#mask4_1_117)">
<path d="M1447.79 264.529C1458.4 271.239 1472.44 288.941 1472.34 296.01C1472.24 303.079 1467.27 305.787 1449.29 319.588C1431.31 333.389 1358.26 335.818 1360.7 322.725C1363.14 309.632 1394.72 230.945 1447.79 264.529Z" fill="#BB02A5"/>
<path d="M1422.23 317.149C1421.92 318.65 1417.46 322.961 1417.4 322.96C1417.4 322.96 1412.26 329.47 1399.54 330.338C1396.96 337.169 1392.15 333.358 1386.85 329.617C1388.95 326.747 1392.45 322.245 1395.33 320.089C1399.73 316.784 1400.63 313.416 1400.68 309.944C1400.71 307.302 1401.75 299.895 1405.21 296.427C1405.15 296.684 1405.11 296.936 1405.07 297.193C1404.34 301.967 1405.02 306.464 1407.26 310.069C1407.71 310.804 1408.23 311.506 1408.81 312.16C1410.62 314.191 1419.63 316.268 1422.23 317.149Z" fill="#650276" fill-opacity="0.5"/>
<g opacity="0.662712">
<path d="M1396.46 303.826C1396.46 303.826 1383.33 306.95 1373.64 318.964C1370.39 322.994 1368.36 326.182 1367.69 328.086C1366.93 328.027 1360.49 326.971 1359.72 326.937C1356.38 319.009 1380.2 302.203 1380.2 302.203C1380.2 302.203 1387.24 300.985 1394.21 303.631L1396.46 303.826Z" fill="#5CFF85"/>
<path d="M1409.26 273.513C1403.04 280.296 1402.27 284.473 1400.73 295.181C1400.16 299.133 1399.16 301.323 1398.22 302.485C1395.69 301.134 1392.82 294.134 1393.2 291.567C1394.09 285.566 1396.36 273.279 1409.26 273.513Z" fill="#5CFF85"/>
</g>
<path d="M1438.85 322.078C1437.28 322.168 1431.85 322.38 1425.5 321.505C1425.06 321.445 1424.62 321.381 1424.17 321.306C1423.95 321.269 1423.73 321.238 1423.5 321.196C1423.38 321.179 1423.27 321.157 1423.15 321.132C1422.99 321.106 1422.83 321.079 1422.68 321.047C1421.52 320.833 1420.35 320.578 1419.17 320.28C1417.66 319.891 1416.15 319.422 1414.67 318.868C1414.73 318.868 1415.21 316.956 1415.52 315.455C1415.67 315.506 1415.82 315.552 1415.97 315.598L1415.97 315.602C1416.07 315.633 1416.17 315.659 1416.27 315.689C1416.36 315.714 1416.45 315.745 1416.55 315.766C1416.61 315.786 1416.67 315.801 1416.73 315.817C1416.95 315.878 1417.17 315.93 1417.39 315.977C1417.4 315.982 1417.41 315.982 1417.43 315.987C1417.65 316.039 1417.88 316.09 1418.12 316.128C1418.28 316.164 1418.45 316.191 1418.61 316.217C1418.67 316.227 1418.73 316.234 1418.78 316.244C1418.85 316.254 1418.9 316.26 1418.97 316.27C1419.18 316.302 1419.4 316.33 1419.61 316.353C1419.86 316.385 1420.12 316.408 1420.37 316.426C1420.63 316.45 1420.89 316.467 1421.15 316.475C1421.78 316.508 1422.43 316.513 1423.08 316.488L1423.15 316.489C1423.32 316.486 1423.49 316.479 1423.67 316.467C1423.86 316.46 1424.06 316.448 1424.26 316.426C1424.3 316.427 1424.34 316.423 1424.39 316.419C1424.54 316.406 1424.7 316.394 1424.85 316.377C1425.05 316.36 1425.25 316.338 1425.45 316.312C1425.65 316.285 1425.85 316.264 1426.04 316.233C1426.23 316.206 1426.42 316.18 1426.6 316.148C1426.63 316.143 1426.65 316.139 1426.67 316.135C1426.75 316.126 1426.83 316.112 1426.91 316.099C1426.99 316.085 1427.08 316.068 1427.17 316.049C1427.61 315.973 1428.05 315.881 1428.49 315.781C1428.69 315.74 1428.88 315.694 1429.08 315.639C1429.29 315.593 1429.49 315.542 1429.7 315.482C1429.93 315.422 1430.16 315.362 1430.39 315.293C1430.56 315.246 1430.73 315.195 1430.9 315.139C1431.44 314.977 1431.99 314.795 1432.53 314.599C1432.77 314.515 1433.01 314.425 1433.25 314.331C1433.75 314.139 1434.26 313.932 1434.76 313.711C1434.93 313.641 1435.1 313.566 1435.27 313.49C1435.73 313.278 1436.2 313.061 1436.66 312.829C1436.81 312.759 1436.95 312.683 1437.1 312.608C1437.11 312.603 1437.12 312.598 1437.13 312.593C1437.35 312.475 1437.58 312.356 1437.81 312.233C1438.11 312.073 1438.41 311.902 1438.71 311.731C1439 311.565 1439.29 311.394 1439.58 311.223C1440.19 310.853 1440.79 310.469 1441.39 310.064C1440.27 313.274 1438.39 319.25 1438.85 322.078Z" fill="#FEAB83"/>
<path d="M1438.85 322.078C1437.28 322.168 1431.85 322.38 1425.5 321.505C1425.06 321.445 1424.62 321.381 1424.17 321.306C1423.95 321.269 1423.73 321.238 1423.5 321.195C1423.38 321.179 1423.27 321.157 1423.15 321.132C1422.99 321.106 1422.83 321.079 1422.68 321.047C1421.52 320.832 1420.35 320.578 1419.17 320.28C1417.86 318.654 1416.78 316.978 1415.97 315.602L1415.97 315.598C1416.16 315.659 1416.36 315.714 1416.55 315.766C1416.61 315.786 1416.67 315.801 1416.73 315.817C1416.95 315.873 1417.17 315.925 1417.39 315.977C1417.4 315.982 1417.41 315.981 1417.43 315.987C1417.66 316.039 1417.88 316.085 1418.12 316.128C1418.34 316.17 1418.56 316.206 1418.78 316.244C1418.85 316.254 1418.91 316.26 1418.97 316.27C1419.18 316.302 1419.4 316.33 1419.61 316.352C1419.86 316.385 1420.12 316.408 1420.37 316.426C1420.63 316.449 1420.88 316.467 1421.15 316.475C1421.78 316.508 1422.43 316.513 1423.08 316.488C1423.28 316.485 1423.47 316.473 1423.67 316.467C1423.87 316.455 1424.06 316.443 1424.26 316.426C1424.45 316.409 1424.65 316.393 1424.85 316.376C1425.43 316.316 1426.02 316.242 1426.61 316.148C1426.63 316.143 1426.65 316.139 1426.67 316.135C1426.83 316.108 1427 316.081 1427.17 316.049C1427.61 315.973 1428.05 315.881 1428.49 315.781C1428.69 315.735 1428.89 315.69 1429.08 315.639C1429.29 315.593 1429.49 315.537 1429.7 315.482C1429.93 315.422 1430.16 315.362 1430.39 315.292C1430.56 315.246 1430.73 315.191 1430.9 315.139C1431.44 314.977 1431.99 314.795 1432.53 314.598C1432.77 314.515 1433.01 314.425 1433.25 314.331C1433.75 314.139 1434.26 313.932 1434.76 313.711C1434.93 313.641 1435.1 313.566 1435.27 313.49C1435.73 313.278 1436.2 313.061 1436.66 312.829C1436.81 312.754 1436.95 312.683 1437.1 312.607C1437.11 312.602 1437.12 312.598 1437.13 312.593C1437.35 312.475 1437.58 312.356 1437.81 312.233C1438.1 312.073 1438.41 311.907 1438.71 311.731C1439 311.57 1439.29 311.399 1439.58 311.223C1440.19 310.853 1440.79 310.469 1441.39 310.064C1440.27 313.274 1438.39 319.25 1438.85 322.078Z" fill="#EE554F"/>
</g>
<path d="M1575.42 492.633C1575.3 493.08 1575.16 493.517 1575.01 493.944C1574.76 494.628 1574.48 495.289 1574.15 495.924C1571.4 501.237 1567.67 504.761 1562.92 506.612C1561.73 507.076 1560.47 507.437 1559.15 507.693C1550.41 509.396 1538.79 506.573 1524.11 499.737C1514.32 495.183 1506.8 490.337 1500.7 485.576C1491.18 478.143 1485.12 470.91 1479.3 465.3C1480.78 464.667 1482.18 463.99 1483.5 463.283C1484.44 462.784 1485.34 462.266 1486.2 461.739C1490.18 459.284 1493.38 456.521 1495.94 453.661C1496.36 453.196 1496.76 452.725 1497.14 452.254C1501.34 447.119 1503.61 441.781 1504.82 437.417C1506.37 431.859 1506.23 427.877 1506.23 427.877L1501.08 424.692L1494.18 420.439L1490.74 418.311C1489.28 414.579 1480.25 392.445 1470.72 390.14C1470.09 389.989 1469.46 389.92 1468.82 389.953C1468.82 389.953 1467.91 388.135 1466.87 385.02C1464.08 376.681 1460.35 359.054 1470.58 342.114C1470.74 342.376 1476.02 341.629 1476.02 341.629C1487.67 341.8 1502.99 336.52 1514.69 360.989C1526.4 385.459 1565.14 448.261 1565.14 448.261C1565.14 448.261 1567.01 451.814 1569.23 457.126C1573.23 466.745 1578.34 482.134 1575.42 492.633Z" fill="#504FCF"/>
<path d="M1559.15 507.693C1550.41 509.397 1538.79 506.573 1524.11 499.737C1499.06 488.075 1488.85 474.507 1479.3 465.301C1481.83 464.217 1484.12 463.017 1486.2 461.739C1490.84 458.883 1494.4 455.61 1497.14 452.254L1559.15 507.693Z" fill="#3F4AC1"/>
<path d="M1543.78 456.705C1542.68 455.611 1541.36 454.428 1539.89 453.197C1535.81 449.76 1530.57 445.92 1525.44 442.351C1515.61 435.505 1506.18 429.664 1506.18 429.664C1506.26 428.523 1506.23 427.877 1506.23 427.877L1499.8 423.903L1494.29 420.507C1493.58 419.971 1492.92 419.485 1492.36 419.081C1504.81 425.077 1515.72 432.532 1524.27 439.235C1531.14 444.609 1536.47 449.505 1539.85 452.77C1541.96 454.808 1543.3 456.209 1543.78 456.705Z" fill="#353EA4"/>
<g opacity="0.63">
<path d="M1574.15 495.924C1566.16 511.373 1549.86 511.722 1524.11 499.737C1499.06 488.075 1488.85 474.507 1479.3 465.3C1481.83 464.217 1484.12 463.017 1486.2 461.739C1486.2 461.739 1499.89 473.73 1519.96 484.378C1540.02 495.026 1555.49 489.941 1559.86 483.883C1562.62 480.056 1557.71 471.821 1553.72 466.282C1557.88 468.849 1561.53 470.132 1563.96 470.622C1567.92 471.873 1571.46 472.729 1574.62 473.275C1576.59 481.442 1577.24 489.941 1574.15 495.924Z" fill="#363FA6"/>
</g>
<path d="M1501.08 424.692L1494.18 420.44L1490.74 418.311C1489.28 414.579 1480.25 392.445 1470.72 390.141L1473.67 380.185C1477.35 393.333 1483.1 399.614 1490.37 403.838C1492.07 404.827 1493.87 405.704 1495.73 406.528L1501.08 424.692Z" fill="#363FA6"/>
<path d="M1474.17 341.897L1471.98 373.368L1471.89 374.723L1471.73 376.991C1471.73 376.991 1472.7 392.8 1457.14 408.978C1441.58 425.151 1447.45 439.377 1447.17 439.658C1447.86 441.612 1448.49 443.497 1449.06 445.32C1449.57 446.962 1450.03 448.551 1450.45 450.086C1452.22 456.543 1453.21 462.023 1453.74 466.459C1454.33 471.297 1454.36 474.89 1454.28 477.153C1448.13 479.779 1441.7 481.855 1435.05 483.32C1427.4 485.006 1419.45 485.89 1411.3 485.875C1407.6 485.868 1403.96 485.677 1400.37 485.312C1374.09 482.65 1350.58 470.655 1333.19 452.698C1333.34 452.388 1333.48 452.078 1333.63 451.777C1340.21 438.161 1349.22 431.034 1355.64 426.311C1356.55 425.637 1357.42 425.013 1358.21 424.426C1365.33 419.17 1365.34 413.357 1364.94 413.783C1364.95 413.327 1364.95 412.865 1364.93 412.399C1364.56 398.751 1356.3 382.778 1356.3 382.778C1356.3 382.778 1356.25 382.642 1356.16 382.389L1356.16 382.385C1355.75 381.272 1354.53 377.884 1352.92 373.423C1351.08 368.355 1348.75 361.901 1346.55 355.802C1342.91 345.704 1339.65 336.591 1339.65 336.426L1339.66 336.412C1339.78 336.309 1339.9 336.213 1340.02 336.116C1340.02 336.111 1340.02 336.111 1340.03 336.111C1349.22 328.493 1359.02 327.793 1364.59 328.192C1367.44 328.396 1369.19 328.885 1369.19 328.885C1369.19 328.885 1396.38 329.978 1399.61 330.173C1412.31 329.153 1414.6 319.589 1414.6 319.589C1418.18 320.892 1421.96 321.658 1425.46 322.096C1431.82 322.894 1437.25 322.617 1438.82 322.509C1439.11 322.489 1439.27 322.475 1439.28 322.475C1439.13 324.228 1440.69 327.927 1440.53 327.863C1449.72 343.737 1474.17 341.897 1474.17 341.897Z" fill="#504FCF"/>
<path d="M1454.28 477.153C1448.13 479.779 1441.7 481.856 1435.05 483.32C1427.4 485.006 1419.45 485.89 1411.3 485.875C1407.6 485.868 1403.96 485.677 1400.37 485.312C1374.09 482.65 1350.58 470.655 1333.19 452.699C1333.34 452.388 1333.48 452.078 1333.63 451.777C1348.12 455.902 1386.7 465.068 1422.08 457.62C1434.83 454.938 1443.94 452.376 1450.45 450.086C1452.22 456.544 1453.21 462.023 1453.74 466.459C1454.33 471.297 1454.36 474.89 1454.28 477.153Z" fill="#2E2F9B"/>
<path d="M1393.86 329.906L1393.18 381.554L1392.19 457.318C1392.15 459.616 1388.99 460.202 1388.14 458.064C1388.14 458.064 1367.42 398.033 1363.8 380.179C1362.81 375.306 1361.02 370.242 1358.94 365.455C1355.93 358.538 1352.32 352.199 1349.64 347.838C1350.58 347.883 1351.57 347.895 1352.6 347.877C1352.89 347.873 1353.19 347.864 1353.49 347.85C1353.73 347.845 1353.97 347.836 1354.21 347.822C1354.43 347.813 1354.66 347.798 1354.89 347.784C1355.44 347.751 1356.01 347.709 1356.59 347.657C1357.33 347.59 1358.09 347.504 1358.86 347.403C1359.23 347.355 1359.6 347.303 1359.98 347.25C1360 347.245 1360.03 347.24 1360.05 347.24C1361.26 347.063 1362.41 346.851 1363.5 346.61C1363.78 346.553 1364.06 346.49 1364.33 346.427C1364.66 346.345 1364.99 346.264 1365.32 346.182C1365.64 346.099 1365.95 346.012 1366.26 345.926C1367.44 345.588 1368.54 345.221 1369.57 344.82C1369.76 344.747 1369.95 344.674 1370.13 344.597C1370.34 344.515 1370.54 344.433 1370.74 344.341C1370.94 344.264 1371.13 344.176 1371.32 344.085C1371.36 344.075 1371.39 344.056 1371.42 344.041C1371.62 343.955 1371.81 343.867 1371.99 343.775C1372.18 343.688 1372.36 343.601 1372.54 343.509C1372.74 343.408 1372.94 343.306 1373.13 343.204C1373.31 343.107 1373.48 343.015 1373.64 342.923C1373.8 342.836 1373.95 342.749 1374.1 342.662C1374.24 342.579 1374.38 342.493 1374.53 342.41C1374.72 342.289 1374.91 342.168 1375.1 342.047C1375.24 341.955 1375.39 341.868 1375.52 341.776C1375.65 341.689 1375.78 341.601 1375.91 341.514C1376.07 341.402 1376.22 341.296 1376.37 341.184C1376.51 341.078 1376.66 340.976 1376.79 340.869C1376.96 340.738 1377.13 340.608 1377.29 340.482C1377.41 340.385 1377.53 340.289 1377.64 340.192C1377.76 340.1 1377.87 340.003 1377.98 339.9C1379.34 338.733 1380.43 337.515 1381.31 336.327C1382.15 335.197 1382.79 334.086 1383.28 333.053C1383.35 332.922 1383.41 332.796 1383.46 332.665C1383.52 332.539 1383.58 332.413 1383.63 332.286C1383.8 331.908 1383.93 331.549 1384.06 331.204C1384.09 331.087 1384.13 330.976 1384.17 330.865C1384.21 330.753 1384.25 330.641 1384.28 330.535C1384.31 330.428 1384.34 330.321 1384.38 330.219C1384.44 330.01 1384.49 329.811 1384.54 329.622C1384.55 329.588 1384.56 329.554 1384.57 329.52C1384.57 329.514 1384.57 329.515 1384.57 329.51C1387.87 329.648 1391.17 329.789 1393.86 329.906Z" fill="#495BF1"/>
<g opacity="0.68">
<path d="M1474.17 341.897L1471.89 374.723C1445.04 393.44 1415.76 389.195 1393.18 381.554C1385.09 378.815 1377.87 375.64 1371.92 372.929C1367.48 370.905 1363.11 368.318 1358.94 365.455C1357.73 364.631 1356.55 363.78 1355.38 362.913C1352.27 360.61 1349.31 358.197 1346.55 355.802C1340.02 350.128 1334.67 344.581 1331.36 340.967C1335.02 338.924 1337.91 337.302 1339.47 336.426L1339.48 336.411C1339.68 336.3 1339.86 336.203 1340.02 336.116C1340.02 336.111 1340.02 336.111 1340.03 336.111C1341.77 334.667 1343.53 333.471 1345.28 332.483C1352.78 328.267 1360.08 327.868 1364.59 328.192C1367.44 328.396 1369.19 328.885 1369.19 328.885C1369.19 328.885 1384.9 329.516 1393.86 329.906C1396.68 330.028 1398.84 330.123 1399.61 330.173C1410.02 329.337 1413.44 322.764 1414.33 320.419C1414.53 319.9 1414.6 319.589 1414.6 319.589C1418.18 320.892 1421.96 321.658 1425.46 322.096C1431.82 322.894 1437.25 322.618 1438.82 322.509C1439.11 322.49 1439.27 322.475 1439.28 322.475C1439.13 324.228 1440.69 327.927 1440.53 327.863C1442.56 331.374 1445.34 334.021 1448.44 336.003C1459.34 343.012 1474.17 341.897 1474.17 341.897Z" fill="#322D8B"/>
</g>
<g style="mix-blend-mode:multiply">
<path d="M1389.54 483.662L1415.86 384.917C1415.86 384.917 1427.72 352.182 1426.35 322.201" stroke="#262682" stroke-width="0.890967" stroke-miterlimit="10"/>
<path d="M1411.56 324.836L1425.65 341.537L1441 330.627" stroke="#262682" stroke-width="0.890967" stroke-miterlimit="10"/>
<path d="M1402.39 329.788L1421.99 365.414L1447.26 342.008" stroke="#262682" stroke-width="0.890967" stroke-miterlimit="10"/>
<path d="M1378.38 337.808L1416.42 383.31L1468.23 365.807" stroke="#262682" stroke-width="0.890967" stroke-miterlimit="10"/>
<path d="M1367.37 345.275L1407.42 416.594L1472.94 377.377" stroke="#262682" stroke-width="0.890967" stroke-miterlimit="10"/>
<path d="M1362.06 346.876L1401.85 437.49L1467.8 393.553" stroke="#262682" stroke-width="0.890967" stroke-miterlimit="10"/>
<path d="M1356.57 373.993L1399.76 445.325L1446.25 426.818" stroke="#262682" stroke-width="0.890967" stroke-miterlimit="10"/>
</g>
<g opacity="0.39">
<path d="M1454.28 477.153C1441.08 482.791 1426.55 485.903 1411.3 485.875C1407.6 485.868 1403.96 485.677 1400.37 485.312C1405.51 481.936 1413.56 475.589 1422.35 464.692C1432.97 451.536 1443.71 446.898 1449.06 445.32C1454.08 461.423 1454.46 472.326 1454.28 477.153Z" fill="#1A1B63"/>
</g>
<g opacity="0.57">
<path d="M1403.28 473.612C1416.55 478.454 1426.97 481.474 1435.05 483.32C1427.4 485.006 1419.45 485.89 1411.3 485.875C1407.6 485.868 1403.96 485.677 1400.37 485.312C1374.09 482.65 1350.58 470.655 1333.19 452.699C1339.81 438.481 1349.08 431.141 1355.64 426.311C1359.56 438.245 1371.16 461.888 1403.28 473.612Z" fill="#946DE0"/>
</g>
<path d="M1356.25 381.525C1356.22 381.811 1356.2 382.098 1356.16 382.385L1356.16 382.389C1356.15 382.52 1356.13 382.647 1356.12 382.778C1356.12 382.72 1354.91 383.703 1352.64 385.476L1352.64 385.481C1350.45 387.182 1347.28 389.619 1343.25 392.559C1330.93 401.541 1310.61 415.233 1285.82 427.285C1285.82 427.412 1259.33 438.053 1245.72 443.516C1241.01 445.401 1237.85 446.668 1237.85 446.668C1237.85 446.668 1219.3 455.08 1205.23 447.653C1200.68 445.26 1196.61 441.211 1193.77 434.698C1193.63 434.373 1193.49 434.042 1193.35 433.702C1193.32 433.639 1193.3 433.576 1193.27 433.513C1191.32 428.565 1190.06 423.158 1189.36 417.532C1188.62 411.65 1188.49 405.536 1188.8 399.47C1189.81 379.731 1195.5 360.509 1200.26 351.606C1200.61 350.955 1200.95 350.365 1201.28 349.826C1202.95 350.863 1204.94 351.949 1207.23 352.93C1215.36 356.421 1227.27 358.624 1241.72 352.784C1242.55 352.45 1243.38 352.087 1244.23 351.701C1244.23 353.051 1244.23 354.425 1244.25 355.829C1244.28 358.242 1244.34 360.749 1244.43 363.386C1244.5 365.256 1244.56 367.038 1244.62 368.733C1244.85 375.125 1245.03 380.195 1245.15 383.566C1245.25 386.606 1245.31 388.262 1245.31 388.262C1245.31 388.262 1245.76 388.783 1247.1 387.834C1247.35 387.659 1247.63 387.431 1247.94 387.14C1249.01 386.152 1257.47 381.102 1266.92 375.743C1275.21 371.052 1284.26 366.11 1289.77 363.469C1297.14 359.932 1315.18 349.99 1327.69 343.019C1328.98 342.298 1330.21 341.611 1331.36 340.967C1335.02 338.924 1337.91 337.302 1339.47 336.426L1339.48 336.411C1339.68 336.3 1339.86 336.203 1340.02 336.116C1340.02 336.111 1340.02 336.111 1340.03 336.111C1340.49 335.845 1340.75 335.704 1340.75 335.704C1340.75 335.704 1345.43 339.603 1349.7 347.357C1351.96 351.465 1354.11 356.651 1355.38 362.913C1356.03 366.091 1356.45 369.545 1356.55 373.274C1356.62 375.892 1356.53 378.641 1356.25 381.525Z" fill="#3F4AC0"/>
<path d="M1327.69 343.019C1310.09 366.352 1271.16 417.085 1245.72 443.516C1241.01 445.401 1237.85 446.668 1237.85 446.668C1237.85 446.668 1219.3 455.08 1205.23 447.653L1245.15 383.566C1245.25 386.606 1245.31 388.262 1245.31 388.262C1245.31 388.262 1245.76 388.783 1247.1 387.834C1247.35 387.659 1247.63 387.431 1247.94 387.14C1249.01 386.152 1257.47 381.102 1266.92 375.743C1275.21 371.052 1284.26 366.11 1289.77 363.469C1297.14 359.932 1315.18 349.99 1327.69 343.019Z" fill="#504FCF"/>
<path d="M1241.72 352.784C1235.38 362.005 1206.02 405.325 1193.35 433.702C1193.32 433.639 1193.3 433.576 1193.28 433.513C1189.28 423.394 1188.19 411.339 1188.8 399.47C1189.81 379.731 1195.5 360.509 1200.26 351.606C1200.61 350.955 1200.95 350.365 1201.29 349.826C1202.95 350.863 1204.94 351.949 1207.23 352.929C1215.36 356.421 1227.27 358.624 1241.72 352.784Z" fill="#504FCF"/>
<g opacity="0.57">
<path d="M1200.76 408.933C1195.1 407.698 1191.06 402.942 1188.8 399.47C1189.81 379.731 1195.5 360.509 1200.26 351.606C1200.61 350.955 1200.95 350.365 1201.29 349.826C1202.95 350.863 1204.94 351.949 1207.23 352.929L1208.65 394.738C1208.65 394.738 1209.95 410.94 1200.76 408.933Z" fill="#946DE0"/>
</g>
<g opacity="0.6">
<path d="M1356.25 381.525C1356.21 381.938 1356.17 382.356 1356.12 382.778C1356.12 382.496 1327.17 407.177 1285.82 427.285C1286.01 427.378 1237.85 446.668 1237.85 446.668C1237.85 446.668 1204.6 461.75 1193.35 433.702C1193.32 433.639 1193.3 433.576 1193.27 433.513C1191.32 428.565 1190.06 423.158 1189.36 417.532C1196.05 419.803 1208.34 422.278 1229.75 421.923C1268.35 421.279 1282.98 425.717 1314.57 407.436C1346.16 389.161 1355.75 377.944 1355.75 377.944L1356.25 381.525Z" fill="#363FA6"/>
</g>
<g opacity="0.57">
<path d="M1349.7 347.357C1345.51 353.138 1329.85 371.429 1291.87 384.37C1263.34 394.415 1257.82 385.449 1266.92 375.743C1275.21 371.052 1284.26 366.11 1289.77 363.469C1301.58 357.803 1340.75 335.705 1340.75 335.705C1340.75 335.705 1345.43 339.603 1349.7 347.357Z" fill="#946DE0"/>
</g>
<path d="M1384.94 327.301C1384.94 327.301 1384.94 327.358 1384.92 327.475L1384.92 327.505C1384.92 327.563 1384.91 327.631 1384.9 327.709C1384.9 327.729 1384.9 327.748 1384.89 327.772C1384.89 327.845 1384.88 327.922 1384.86 328.009C1384.84 328.179 1384.81 328.379 1384.76 328.602C1384.75 328.675 1384.73 328.753 1384.72 328.835C1384.71 328.913 1384.69 328.996 1384.67 329.083C1384.65 329.165 1384.63 329.252 1384.61 329.345C1384.6 329.393 1384.58 329.452 1384.57 329.51C1384.57 329.515 1384.57 329.514 1384.57 329.519C1384.56 329.554 1384.55 329.588 1384.54 329.622C1384.49 329.811 1384.44 330.01 1384.38 330.219C1384.34 330.32 1384.31 330.428 1384.28 330.534C1384.24 330.641 1384.21 330.753 1384.17 330.865C1384.13 330.976 1384.09 331.087 1384.06 331.204C1383.93 331.549 1383.8 331.908 1383.63 332.286C1383.58 332.412 1383.52 332.539 1383.46 332.665C1383.41 332.796 1383.35 332.921 1383.28 333.053C1382.79 334.086 1382.15 335.197 1381.31 336.327C1380.43 337.515 1379.34 338.733 1377.98 339.9C1377.87 340.003 1377.76 340.1 1377.64 340.192C1377.53 340.289 1377.41 340.385 1377.29 340.482C1377.13 340.608 1376.96 340.738 1376.79 340.869C1376.66 340.976 1376.51 341.078 1376.37 341.184C1376.22 341.296 1376.07 341.402 1375.91 341.514C1375.78 341.601 1375.65 341.689 1375.52 341.776C1375.39 341.868 1375.24 341.955 1375.1 342.047C1374.91 342.167 1374.72 342.289 1374.53 342.41C1374.38 342.492 1374.24 342.579 1374.1 342.662C1373.95 342.749 1373.8 342.836 1373.64 342.923C1373.48 343.015 1373.31 343.107 1373.13 343.204C1372.94 343.306 1372.74 343.408 1372.54 343.509C1372.36 343.601 1372.18 343.688 1371.99 343.775C1371.81 343.867 1371.62 343.954 1371.42 344.041C1371.39 344.056 1371.36 344.075 1371.32 344.084C1371.13 344.176 1370.94 344.264 1370.74 344.341C1370.54 344.433 1370.34 344.514 1370.13 344.597C1369.95 344.674 1369.76 344.747 1369.57 344.819C1368.54 345.22 1367.44 345.588 1366.26 345.925C1365.95 346.012 1365.64 346.099 1365.32 346.181C1364.99 346.264 1364.66 346.345 1364.33 346.427C1364.06 346.49 1363.78 346.552 1363.5 346.61C1362.41 346.851 1361.26 347.062 1360.05 347.24C1360.03 347.24 1360 347.244 1359.98 347.25C1359.6 347.303 1359.23 347.355 1358.86 347.403C1358.09 347.504 1357.33 347.59 1356.59 347.656C1356.01 347.709 1355.44 347.751 1354.89 347.784C1354.66 347.798 1354.43 347.813 1354.21 347.822C1353.97 347.836 1353.73 347.845 1353.49 347.85C1353.19 347.864 1352.89 347.872 1352.6 347.877C1351.57 347.895 1350.58 347.883 1349.64 347.837C1346.39 347.691 1343.64 347.196 1341.32 346.502C1332.41 343.844 1329.86 338.288 1329.86 338.288C1329.86 338.288 1336.86 333.939 1344.58 330.238C1347.9 328.642 1351.36 327.162 1354.44 326.206C1354.89 326.066 1355.36 325.941 1355.85 325.83C1356.05 325.782 1356.25 325.738 1356.46 325.699C1356.63 325.661 1356.8 325.628 1356.97 325.599C1357.17 325.56 1357.37 325.526 1357.57 325.498C1357.78 325.464 1357.99 325.43 1358.2 325.407C1358.58 325.349 1358.96 325.306 1359.35 325.268C1359.54 325.244 1359.74 325.225 1359.93 325.211C1360.08 325.197 1360.23 325.182 1360.38 325.172C1360.61 325.153 1360.84 325.139 1361.07 325.125C1362.88 325.017 1364.77 325.006 1366.66 325.068C1367.93 325.109 1369.21 325.184 1370.45 325.279C1378.15 325.87 1384.94 327.301 1384.94 327.301Z" fill="#FFC34D"/>
<path d="M1381.31 336.327C1378.05 340.75 1371.83 345.504 1360.05 347.24C1360.03 347.24 1360 347.244 1359.98 347.25C1351.84 348.439 1345.79 347.836 1341.32 346.502C1344.21 342.666 1350.47 336.121 1360.07 335.24C1369.06 334.416 1376.95 335.489 1381.31 336.327Z" fill="#FFAD47"/>
<g opacity="0.75">
<path d="M1384.94 327.301C1384.94 327.301 1384.94 327.358 1384.92 327.475L1384.92 327.505C1384.92 327.559 1384.91 327.631 1384.9 327.709C1384.9 327.729 1384.9 327.748 1384.89 327.772C1384.89 327.845 1384.88 327.922 1384.86 328.009C1384.84 328.179 1384.81 328.379 1384.76 328.602C1384.75 328.675 1384.73 328.753 1384.72 328.835C1384.71 328.913 1384.69 328.996 1384.67 329.083C1384.65 329.165 1384.63 329.252 1384.61 329.345C1384.59 329.403 1384.58 329.456 1384.56 329.519C1384.56 329.554 1384.55 329.588 1384.54 329.622C1384.49 329.811 1384.44 330.01 1384.38 330.219C1384.34 330.32 1384.31 330.428 1384.28 330.534C1384.24 330.641 1384.21 330.753 1384.17 330.865C1384.13 330.976 1384.09 331.087 1384.06 331.204C1383.93 331.549 1383.79 331.913 1383.63 332.286C1383.58 332.412 1383.52 332.539 1383.46 332.665C1383.41 332.796 1383.35 332.922 1383.28 333.053C1382.79 334.086 1382.15 335.197 1381.31 336.327C1380.43 337.515 1379.34 338.733 1377.98 339.9C1377.87 340.003 1377.76 340.1 1377.64 340.192C1377.53 340.289 1377.41 340.385 1377.29 340.482C1377.13 340.608 1376.96 340.738 1376.79 340.869C1376.66 340.976 1376.51 341.078 1376.37 341.184C1376.22 341.296 1376.07 341.402 1375.91 341.514C1375.78 341.601 1375.65 341.689 1375.52 341.776C1375.39 341.868 1375.24 341.955 1375.1 342.047C1374.91 342.167 1374.72 342.289 1374.53 342.41C1374.38 342.492 1374.24 342.579 1374.1 342.662C1373.95 342.749 1373.8 342.836 1373.64 342.923C1373.48 343.015 1373.31 343.107 1373.13 343.204C1372.94 343.306 1372.74 343.408 1372.54 343.509C1372.36 343.601 1372.18 343.688 1371.99 343.775C1371.81 343.867 1371.62 343.954 1371.42 344.041C1371.39 344.056 1371.36 344.075 1371.32 344.084C1371.13 344.176 1370.94 344.264 1370.74 344.341C1370.54 344.433 1370.34 344.514 1370.13 344.597C1369.95 344.674 1369.76 344.747 1369.57 344.819C1368.54 345.22 1367.44 345.588 1366.26 345.925C1365.95 346.012 1365.64 346.099 1365.32 346.181C1364.99 346.264 1364.66 346.345 1364.33 346.427C1364.06 346.49 1363.78 346.552 1363.5 346.61C1362.41 346.851 1361.26 347.062 1360.05 347.24C1364.13 343.149 1366.64 338.831 1368.16 334.963C1369.04 332.76 1369.59 330.707 1369.95 328.92C1370.22 327.517 1370.37 326.284 1370.45 325.279C1378.15 325.87 1384.94 327.301 1384.94 327.301Z" fill="#FFB34D"/>
</g>
<path d="M1209.15 252.166L1206.19 261.64L1195.97 256.833L1193.8 254.26L1188.64 248.151L1188.73 244.125L1189.02 230.571C1189.02 230.299 1189.12 230.067 1189.29 229.892C1189.61 229.538 1190.15 229.412 1190.62 229.68C1196.93 233.358 1195.28 243.128 1195.28 243.326C1195.28 243.332 1195.28 243.331 1195.28 243.331C1195.42 243.7 1197.59 246.609 1197.6 246.609C1199.13 248.229 1209.15 252.166 1209.15 252.166Z" fill="#FEAB83"/>
<path d="M1193.55 256.547L1186.5 254.684L1181.44 249.323L1175.71 243.246L1175.88 236.982L1176.27 222.617L1176.29 222.005C1176.3 221.407 1176.95 221.045 1177.47 221.337C1179.36 222.414 1180.76 224.092 1181.79 226.022C1183.63 229.458 1184.3 233.694 1184.54 236.73C1184.72 239.072 1184.65 240.703 1184.65 240.703L1191.09 246.101L1191.11 246.115L1191.13 246.208L1192.92 253.874L1193.55 256.547Z" fill="#FEAB83"/>
<path d="M1179.54 252.398L1166.67 239.534L1166.12 236.872L1165.6 234.311L1165.6 234.307L1162.37 218.575L1162.25 217.978C1162.14 217.448 1162.61 217.012 1163.12 217.125C1163.15 217.13 1163.17 217.135 1163.19 217.145C1164.35 217.526 1166.2 218.457 1167.92 220.698C1168.88 221.949 1169.79 223.606 1170.53 225.802C1171.78 229.52 1172.39 231.706 1172.67 232.989C1172.76 233.382 1172.82 233.693 1172.86 233.936L1172.86 233.941C1172.98 234.728 1172.89 234.806 1172.89 234.806L1177.85 239.982L1178.86 247.41L1179.54 252.398Z" fill="#FEAB83"/>
<path d="M1242.48 291.603C1239.32 293.04 1236.14 293.724 1233.2 293.961C1230.52 294.18 1228.02 294.024 1225.93 293.73C1224.5 293.528 1223.24 293.263 1222.22 293.003C1220.39 292.538 1219.31 292.095 1219.31 292.081C1219.29 291.391 1219.25 290.707 1219.15 290.026C1218.51 285.406 1215.79 280.947 1209.11 274.865C1207.48 273.385 1205.61 271.901 1203.68 270.474C1196.5 265.197 1188.43 260.802 1188.43 260.802L1184.46 258.624L1168.45 249.819C1168.45 249.819 1148.4 226.757 1146.79 225.331C1146.23 224.83 1146.07 224.329 1146.1 223.897C1146.14 223.111 1146.8 222.534 1146.8 222.534C1149.05 222.674 1151.09 223.101 1152.92 223.74C1158.68 225.718 1162.44 229.688 1164.65 232.858C1165.01 233.364 1165.32 233.85 1165.6 234.307C1165.95 234.891 1166.24 235.415 1166.48 235.867C1167.01 236.873 1167.24 237.5 1167.24 237.5L1192.43 246.876C1192.43 246.876 1200.21 249.205 1209.16 252.135C1209.98 252.406 1210.82 252.683 1211.67 252.962C1218.76 255.321 1226.21 257.952 1230.88 260.03C1235.4 262.048 1238.18 267.57 1239.88 273.445C1240.37 275.15 1240.78 276.89 1241.1 278.576C1241.95 282.949 1242.29 287.004 1242.42 289.388C1242.49 290.778 1242.5 291.603 1242.48 291.603Z" fill="#FEAB83"/>
<path d="M1222.22 293.003C1220.39 292.538 1219.31 292.095 1219.31 292.081C1219.29 291.391 1219.25 290.707 1219.15 290.026C1218.51 285.406 1215.79 280.947 1209.11 274.865C1207.48 273.386 1205.61 271.901 1203.68 270.474C1196.5 265.197 1188.43 260.802 1188.43 260.802L1184.46 258.624L1206.66 266.187C1206.66 266.187 1221.34 269.439 1224.03 276.597C1226.22 282.439 1225.35 288.653 1222.22 293.003Z" fill="#FE9F7D"/>
<path d="M1239.88 273.445C1238.47 268.571 1236.32 263.934 1233.04 261.349C1232.37 260.819 1231.65 260.371 1230.88 260.029C1226.21 257.952 1218.76 255.321 1211.67 252.962C1206.81 249.714 1204.96 246.875 1204.39 244.751C1204.11 243.755 1204.12 242.915 1204.23 242.264C1204.39 241.268 1204.79 240.716 1204.79 240.716C1205.17 241.101 1217.76 246.834 1223.5 249.438C1225.66 250.418 1227.66 251.71 1229.41 253.31C1229.88 253.739 1230.24 254.108 1230.33 254.293C1230.34 254.307 1230.34 254.322 1230.35 254.336C1239.01 262.55 1240.08 269.745 1239.88 273.445Z" fill="#FEAB83"/>
<path d="M1178.16 253.721L1163.05 241.281L1152.92 223.74C1158.68 225.718 1162.44 229.688 1164.65 232.858C1165.01 233.364 1165.32 233.85 1165.6 234.307L1166.67 239.535L1178.16 253.721Z" fill="#FB856D"/>
<path d="M1181.44 249.323L1178.86 247.41L1174.38 244.099L1169.43 235.372C1167.03 229.132 1167.62 222.796 1167.92 220.699C1168.88 221.949 1169.79 223.606 1170.53 225.802C1171.78 229.52 1172.39 231.706 1172.67 232.989L1172.89 234.806L1175.86 237.905L1175.71 243.246L1181.44 249.323Z" fill="#FB856D"/>
<path d="M1193.8 254.26C1193.6 254.182 1193.3 254.06 1192.92 253.874C1191.5 253.177 1188.94 251.643 1186.36 248.715C1182.48 244.303 1181.26 239.279 1181.26 239.279L1181.79 226.022C1183.63 229.458 1184.3 233.694 1184.54 236.73C1184.72 239.072 1184.65 240.703 1184.65 240.703L1188.73 244.125L1188.64 248.15L1193.8 254.26Z" fill="#FB856D"/>
<path d="M1239.88 273.445C1238.47 268.571 1236.32 263.935 1233.04 261.35C1232.37 260.819 1231.65 260.371 1230.88 260.03C1226.21 257.952 1218.76 255.321 1211.67 252.962C1206.81 249.714 1204.96 246.875 1204.39 244.751C1206.58 245.97 1210.55 247.905 1215.83 249.386C1220.54 250.705 1225.86 252.386 1230.33 254.293C1230.34 254.307 1230.34 254.322 1230.35 254.336C1239.01 262.55 1240.08 269.745 1239.88 273.445Z" fill="#FB856D"/>
<path d="M1244.88 322.213C1244.66 333.232 1244.24 341.914 1244.23 351.701C1239.29 353.969 1234.63 355.296 1230.3 355.935C1224.23 356.822 1218.8 356.356 1214.12 355.225C1208.79 353.943 1204.45 351.799 1201.29 349.826C1201.32 349.772 1201.35 349.714 1201.39 349.66C1201.44 349.66 1202.55 346.316 1204.16 341.613C1205.48 337.726 1207.14 332.906 1208.79 328.281C1210.36 323.909 1211.93 319.7 1213.23 316.614C1213.43 316.129 1213.62 315.668 1213.81 315.241C1216.56 309.03 1217.99 302.651 1218.69 297.781C1218.94 296.116 1219.09 294.63 1219.19 293.387C1219.24 292.717 1219.27 292.124 1219.29 291.604C1219.29 291.604 1226.15 294.511 1236.75 292.763C1238.8 292.427 1240.98 291.916 1243.28 291.177C1243.28 291.177 1243.44 292.484 1243.66 294.704C1244.06 298.842 1244.68 306.142 1244.87 314.093C1244.92 316.754 1244.94 319.493 1244.88 322.213Z" fill="#FFC34E"/>
<path d="M1244.88 322.213C1244.66 333.232 1244.24 341.914 1244.23 351.701C1239.29 353.969 1234.63 355.296 1230.3 355.935C1224.23 356.822 1218.8 356.356 1214.12 355.225C1221.34 347.04 1235.89 326.446 1236.75 292.763C1238.79 292.427 1240.98 291.916 1243.28 291.177C1243.28 291.177 1243.44 292.484 1243.66 294.704C1244.06 298.842 1244.68 306.143 1244.87 314.093C1244.92 316.754 1244.94 319.493 1244.88 322.213Z" fill="#FFAD47"/>
<g opacity="0.56">
<path d="M1244.88 322.213C1244.66 333.232 1244.24 341.914 1244.23 351.701C1224.49 360.776 1209.2 354.76 1201.29 349.826C1201.32 349.772 1201.35 349.714 1201.39 349.66C1201.44 349.66 1202.55 346.316 1204.16 341.613C1220.09 327.214 1239.89 316.644 1244.87 314.093C1244.92 316.754 1244.94 319.493 1244.88 322.213Z" fill="#FEA041"/>
</g>
<path d="M1463.52 401.496L1459.29 398.89C1459.45 398.959 1461.08 399.962 1463.52 401.496Z" fill="#FFC34E"/>
<path d="M1503.18 442.169C1501.09 447.202 1497.57 452.834 1491.67 457.801L1491.66 457.801C1488.35 460.587 1484.29 463.158 1479.3 465.3C1479.03 465.042 1478.77 464.79 1478.5 464.537C1473.1 459.462 1463.13 445.374 1455.28 433.758C1451.19 427.699 1447.67 422.317 1445.67 419.229C1444.55 417.498 1443.9 416.487 1443.9 416.487C1443.9 416.487 1443.97 416.433 1444.12 416.327C1444.72 415.862 1446.58 414.427 1448.79 412.479C1451.87 409.76 1455.66 406.037 1457.77 402.544C1458.53 401.273 1459.07 400.037 1459.29 398.886C1459.29 398.891 1459.29 398.89 1459.29 398.89L1460.16 399.421L1463.52 401.497L1464.05 401.828L1464.46 402.085L1472.19 406.859L1478.5 410.756L1490.74 418.311L1499.8 423.903L1506.23 427.877C1506.23 427.877 1506.46 434.279 1503.18 442.169Z" fill="#FEAE47"/>
<path d="M1503.18 442.169C1494.66 438.239 1474.93 429.039 1464.85 423.489C1456.87 419.084 1451.65 414.995 1448.79 412.479C1451.87 409.76 1455.66 406.037 1457.77 402.544C1458.53 401.273 1459.07 400.037 1459.29 398.886L1459.29 398.89L1460.16 399.421L1463.52 401.496L1464.05 401.828L1464.46 402.085L1472.19 406.859L1490.74 418.311L1506.23 427.877C1506.23 427.877 1506.46 434.279 1503.18 442.169Z" fill="#FFC34E"/>
<path d="M1460.16 399.421C1459.46 401.571 1455.58 412.152 1445.67 419.229C1444.55 417.498 1443.9 416.487 1443.9 416.487C1443.9 416.487 1457.99 405.993 1459.29 398.886L1459.29 398.89L1460.16 399.421Z" fill="#FE9C44"/>
<path d="M1503.18 442.169C1499.92 450.021 1493.18 459.348 1479.3 465.3C1479.03 465.042 1478.77 464.79 1478.5 464.537C1473.1 459.462 1463.13 445.374 1455.28 433.758C1463.3 433.287 1484.28 431.363 1499.8 423.903L1506.23 427.877C1506.23 427.877 1506.46 434.279 1503.18 442.169Z" fill="#FE9E42" fill-opacity="0.29"/>
<path d="M1506.18 429.664C1506.02 432.102 1505.42 436.788 1503.18 442.169C1501.09 447.202 1497.57 452.834 1491.67 457.801L1491.66 457.801C1483.78 444.98 1486.86 439.036 1488.71 433.765C1490.72 428.081 1485.11 421.535 1485.11 421.535L1478.5 410.756L1490.74 418.311L1494.29 420.507L1499.8 423.903L1506.23 427.877C1506.23 427.877 1506.26 428.523 1506.18 429.664Z" fill="#FFCA66"/>
<path d="M1438.56 422.266C1438.56 422.266 1438.26 422.998 1437.51 423.303C1437.12 423.463 1436.61 423.505 1435.96 423.256C1435.94 423.247 1434.77 420.375 1432.88 415.684C1432.41 414.528 1431.9 413.264 1431.35 411.903C1431.01 411.063 1430.65 410.182 1430.29 409.274C1429.93 408.379 1429.56 407.456 1429.18 406.508C1428.35 404.458 1427.47 402.281 1426.56 400.011C1423.53 392.493 1420.09 383.963 1416.77 375.711C1416.44 374.87 1416.1 374.033 1415.77 373.202C1415.17 371.705 1414.57 370.223 1413.99 368.765C1413.67 367.983 1413.36 367.205 1413.05 366.437C1412.52 365.125 1412 363.832 1411.5 362.568C1411.47 362.496 1411.44 362.428 1411.41 362.355C1410.08 359.046 1408.83 355.93 1407.7 353.116C1404.64 345.524 1402.47 340.129 1402.05 339.065C1402 338.934 1401.97 338.798 1401.97 338.662L1401.98 335.399C1401.98 335.316 1402 335.248 1402.04 335.19C1402.16 334.995 1402.45 334.943 1402.63 335.138L1405.05 337.706C1405.14 337.804 1405.22 337.92 1405.27 338.051L1412.31 355.859L1414.5 361.399L1415.45 363.8L1417.55 369.106L1418.41 371.294L1419.52 374.093L1420.18 375.78L1429.89 400.323L1433.04 408.307L1434.13 411.039L1434.67 412.42L1434.72 412.531L1438.56 422.266Z" fill="#5CFF85"/>
<path d="M1418.41 371.294C1418.29 371.4 1418.07 371.395 1417.69 371.166C1417.43 371.01 1417.1 370.801 1416.75 370.572L1413.51 362.359L1404.59 338.424C1404.59 338.424 1403.27 336.61 1402.84 335.861C1402.56 335.37 1402.23 335.23 1402.04 335.19C1402.16 334.996 1402.45 334.943 1402.63 335.138L1405.05 337.706C1405.14 337.804 1405.22 337.92 1405.27 338.051L1414.5 361.399C1414.11 363.55 1414.79 366.047 1415.88 367.147C1416.45 367.716 1417.06 368.469 1417.55 369.107L1418.41 371.294Z" fill="#00AF60"/>
<path d="M1438.56 422.266C1438.56 422.266 1438.26 422.998 1437.51 423.303L1431.27 407.459C1431.78 407.693 1432.38 407.981 1433.04 408.308L1438.56 422.266Z" fill="#00AF60"/>
<path d="M1459.29 398.886C1459.21 399.308 1459.08 399.74 1458.92 400.187C1458.92 400.187 1458.92 400.191 1458.92 400.196C1458.64 400.953 1458.25 401.744 1457.77 402.544C1456.88 404.01 1455.71 405.512 1454.41 406.962C1454.41 406.962 1454.4 406.967 1454.4 406.972C1453.41 408.083 1452.36 409.159 1451.3 410.167L1451.26 410.216C1450.41 411.021 1449.58 411.781 1448.79 412.479C1446.58 414.427 1444.72 415.862 1444.12 416.327C1443.86 415.996 1443.22 415.305 1441.65 413.923C1441.31 413.621 1440.93 413.29 1440.5 412.925C1438.37 411.115 1435.36 409.453 1433.04 408.307C1432.38 407.981 1431.78 407.693 1431.27 407.459C1430.25 406.992 1429.6 406.723 1429.6 406.723C1429.6 406.723 1429.45 406.644 1429.18 406.508C1427.35 405.592 1420.12 401.965 1417.95 401.121C1415.47 400.16 1410.82 396.845 1409.72 395.706C1409.25 395.214 1408.84 394.102 1408.54 392.994C1408.14 391.537 1407.92 390.089 1407.92 390.089C1407.92 390.089 1407.52 389.758 1407.02 389.3C1406.41 388.741 1405.64 387.991 1405.29 387.427C1404.99 386.946 1404.97 385.911 1405.04 384.945C1405.11 383.843 1405.3 382.834 1405.3 382.834C1405.3 382.834 1405.13 382.406 1403.7 381.481C1403.05 381.057 1402.6 380.536 1402.3 380.099C1401.94 379.573 1401.79 379.165 1401.79 379.165C1401.79 379.165 1401.79 378.485 1401.78 377.606C1401.78 376.528 1401.76 375.153 1401.73 374.405C1401.71 374.012 1401.85 373.638 1402.07 373.304C1402.59 372.494 1403.55 371.923 1403.55 371.923C1403.55 371.923 1403.54 371.918 1403.53 371.913C1403.4 371.815 1402.29 370.993 1401.55 369.845C1400.99 368.96 1400.65 367.887 1401.14 366.8C1402.07 364.742 1403.61 363.939 1404.2 363.697C1404.35 363.634 1404.45 363.61 1404.45 363.61L1410.13 362.586L1411.41 362.355C1411.69 363.06 1411.98 363.774 1412.27 364.498C1412.38 364.76 1412.48 365.028 1412.59 365.295C1412.74 365.675 1412.9 366.053 1413.05 366.437L1413.79 368.634C1413.79 368.634 1413.86 368.682 1413.99 368.765C1414.46 369.082 1415.73 369.919 1416.75 370.572C1417.1 370.801 1417.43 371.01 1417.69 371.166C1418.07 371.395 1418.29 371.4 1418.41 371.294C1418.67 371.085 1418.51 370.42 1418.51 370.42C1418.51 370.42 1418.11 369.836 1417.55 369.106C1417.06 368.469 1416.45 367.716 1415.88 367.147C1414.79 366.047 1414.11 363.55 1414.5 361.399C1414.54 361.175 1414.59 360.958 1414.65 360.749C1414.75 360.414 1414.89 360.147 1415.04 359.929C1415.14 359.788 1415.25 359.671 1415.37 359.574C1416.29 358.799 1417.57 359.224 1417.57 359.224L1424.21 364.175C1424.21 364.175 1432.61 371.514 1437.4 374.184C1442.2 376.859 1444.25 380.345 1444.25 380.345C1444.25 380.345 1444.78 381.24 1445.66 382.664C1446.76 384.463 1448.42 387.102 1450.28 389.845C1453.54 394.654 1459.06 398.721 1459.29 398.886Z" fill="#FEAB83"/>
<path d="M1454.41 406.962C1454.41 406.962 1454.4 406.967 1454.4 406.972C1454.27 407.103 1453.02 408.392 1451.3 410.167L1451.26 410.215C1450.41 411.02 1449.58 411.781 1448.79 412.479C1446.58 414.427 1444.72 415.862 1444.12 416.327C1443.81 415.923 1442.93 414.994 1440.5 412.925C1438.37 411.115 1435.36 409.453 1433.04 408.307C1432.38 407.981 1431.78 407.693 1431.27 407.459C1430.25 406.991 1429.6 406.723 1429.6 406.723C1429.6 406.723 1429.45 406.644 1429.18 406.508C1427.35 405.592 1420.12 401.965 1417.95 401.121C1415.47 400.16 1410.82 396.845 1409.72 395.706C1409.25 395.214 1408.84 394.102 1408.54 392.994C1408.14 391.537 1407.92 390.089 1407.92 390.089C1407.92 390.089 1405.93 388.448 1405.29 387.427C1404.99 386.946 1404.97 385.911 1405.04 384.945C1405.11 383.843 1405.3 382.833 1405.3 382.833C1405.3 382.833 1405.13 382.406 1403.7 381.48C1403.05 381.057 1402.6 380.536 1402.3 380.099C1403.01 380.013 1404.49 379.888 1405.26 380.312C1406.3 380.883 1414.66 393.831 1422.11 398.322C1429.57 402.814 1443.92 412.897 1454.41 406.962Z" fill="#F8997F"/>
<path d="M1418.62 365.515C1416.68 363.156 1415.76 360.833 1415.37 359.574C1415.08 359.817 1414.82 360.195 1414.65 360.749C1414.59 360.958 1414.54 361.175 1414.5 361.399C1414.11 363.55 1414.79 366.047 1415.88 367.147C1416.45 367.716 1417.06 368.469 1417.55 369.107C1418.11 369.836 1418.51 370.42 1418.51 370.42C1418.51 370.42 1418.67 371.085 1418.41 371.294C1418.29 371.4 1418.07 371.395 1417.69 371.166C1417.43 371.01 1417.1 370.801 1416.75 370.572C1415.73 369.919 1414.46 369.082 1413.99 368.765C1413.86 368.682 1413.79 368.634 1413.79 368.634L1413.05 366.437C1412.9 366.054 1412.74 365.676 1412.59 365.296L1412.59 365.296C1412.48 365.028 1412.38 364.76 1412.27 364.498C1411.98 363.774 1411.69 363.06 1411.41 362.355L1410.13 362.586C1410.67 363.097 1411.2 363.811 1411.2 364.65C1407.62 365.294 1410.14 366.729 1414.71 370.131C1419.82 373.944 1426.11 374.984 1426.11 374.984C1426.11 374.984 1421.49 369.002 1418.62 365.515Z" fill="#FB856D"/>
<path d="M1410.03 377.903C1407.99 377.2 1404.04 375.308 1402.07 373.304C1402.59 372.494 1403.55 371.923 1403.55 371.923C1403.55 371.923 1408.76 376.939 1412.92 377.447C1412.99 377.447 1412.41 378.723 1410.03 377.903Z" fill="#FB856D"/>
<path d="M1414.98 387.472C1412.83 387.398 1409.07 386.948 1405.04 384.945C1405.11 383.843 1405.3 382.833 1405.3 382.833C1405.3 382.833 1410.7 386.041 1415.02 387.125C1415.23 387.177 1415.19 387.48 1414.98 387.472Z" fill="#FB856D"/>
<path d="M1416.53 394.265C1415.03 394.299 1412.25 394.111 1408.54 392.994C1408.14 391.537 1407.92 390.089 1407.92 390.089C1407.92 390.089 1412.43 392.984 1416.56 393.911C1416.76 393.958 1416.74 394.26 1416.53 394.265Z" fill="#FB856D"/>
<path d="M1454.41 406.962C1454.41 406.962 1454.4 406.967 1454.4 406.972C1453.41 408.083 1452.36 409.159 1451.3 410.167L1451.26 410.216C1450.41 411.021 1449.58 411.781 1448.79 412.479C1446.58 414.427 1444.72 415.862 1444.12 416.327C1443.86 415.996 1443.22 415.305 1441.65 413.923C1450.48 410.472 1458.65 400.531 1458.92 400.196C1458.64 400.953 1458.25 401.744 1457.77 402.544" fill="#FB856D"/>
<g opacity="0.29724">
<path d="M1191.29 229.675C1190.82 229.402 1190.28 229.521 1189.95 229.871C1191.21 231.015 1194.07 233.959 1194.68 237.63C1195.43 242.186 1195.76 243.293 1195.79 243.376C1195.79 243.177 1197.56 233.429 1191.29 229.675Z" fill="#41EB7A"/>
<path d="M1166.21 234.001C1165.94 233.54 1165.63 233.05 1165.28 232.54C1163.11 229.344 1159.4 225.329 1153.66 223.282C1151.84 222.621 1149.81 222.169 1147.56 222.002C1147.56 222.002 1146.89 222.571 1146.84 223.357C1148.53 223.483 1151.7 223.935 1154.28 225.559C1157.87 227.804 1164.19 232.948 1166.7 236.571L1166.21 234.005L1166.21 234.001Z" fill="#41EB7A"/>
<path d="M1164.02 216.81C1163.48 216.628 1162.95 217.076 1163.06 217.632L1163.17 218.231C1164.83 219.201 1167.54 221.022 1169.19 223.395C1171.62 226.877 1173.36 233.283 1173.48 233.717C1173.33 232.685 1172.82 230.439 1171.25 225.556C1169.26 219.394 1165.82 217.428 1164.02 216.81Z" fill="#41EB7A"/>
<path d="M1178.23 221.175C1177.72 220.876 1177.07 221.231 1177.05 221.828L1177.03 222.44C1179.04 224.663 1183.72 230.362 1185.13 236.652C1184.81 231.907 1183.48 224.23 1178.23 221.175Z" fill="#41EB7A"/>
<path d="M1230.71 254.808C1230.67 254.643 1230.29 254.244 1229.79 253.771C1228.06 252.149 1226.07 250.835 1223.93 249.829C1218.22 247.156 1205.7 241.27 1205.32 240.881C1205.32 240.881 1204.92 241.428 1204.74 242.422C1206.52 243.972 1210.76 245.691 1216.02 248.1C1225.21 252.302 1227.64 252.567 1231.21 257.574C1232 258.668 1232.28 260.351 1233.12 261.563C1232.06 260.816 1230.72 260.113 1229.03 259.562C1222.22 257.33 1204.8 250.342 1204.8 250.342C1204.8 250.342 1210.02 253.616 1211.97 254.539C1215.51 256.209 1224.77 259.503 1224.77 259.503C1224.77 259.503 1234.28 263.727 1235.83 266.124C1236.5 267.15 1236.85 266.584 1236.39 265.393C1237.97 267.864 1239.15 270.897 1240.02 274.03C1240.27 270.333 1239.28 263.126 1230.71 254.808Z" fill="#41EB7A"/>
</g>
<mask id="mask5_1_117" style="mask-type:alpha" maskUnits="userSpaceOnUse" x="1436" y="294" width="169" height="179">
<path d="M1604.59 454.513C1594.08 469.136 1585.08 472.544 1572.37 471.937C1558.12 471.286 1549.23 465.644 1538.68 452.557C1534.85 447.823 1531.04 434.859 1528.51 426.601C1525.62 419.056 1517.48 409.09 1503.06 408.705C1484.03 408.197 1474.81 392.536 1473.93 378.491C1473.3 369.892 1468.3 359.963 1459.18 351.19C1450.89 343.187 1443.06 341.611 1438.94 334.268C1431.38 320.592 1446.68 303.819 1446.69 303.746L1471.44 294.534C1473.71 303.091 1476.87 312.538 1486.13 314.521C1500.98 317.707 1523.72 306.269 1532.23 316.141C1543.01 328.992 1521.16 347.6 1530.36 360.074C1538.95 371.727 1576.1 357.702 1588.96 379.349C1603.92 404.534 1580.93 427.401 1581.42 446.516C1581.96 456.409 1593.98 460.389 1604.59 454.513Z" fill="#BB02A5"/>
</mask>
<g mask="url(#mask5_1_117)">
<path d="M1621.96 275.765L1625.27 486.533L1417.91 489.788L1414.6 279.021L1621.96 275.765Z" fill="#BB02A5"/>
<g opacity="0.5">
<path d="M1655.32 426.222C1655.32 426.222 1607.56 494.274 1606.17 496.013C1561.28 551.966 1477.48 421.035 1473.28 418.541C1468.67 415.811 1418.99 343.259 1417.27 341.246C1485.75 347.656 1564.61 330.295 1572.37 324.675C1571.39 328.882 1655.32 426.222 1655.32 426.222Z" fill="#680C5D"/>
</g>
<path d="M1576.37 487.893C1573.22 488.507 1457.63 432.715 1457.62 427.168C1457.62 425.429 1423.86 325.158 1424.34 323.31C1425.56 318.57 1440.19 307.461 1440.64 303.943L1445.45 305.003C1445.45 305.003 1445.21 325.441 1461.09 328.981C1476.97 332.52 1500.54 330.823 1500.82 342.665C1501.1 354.508 1497.19 358.688 1497.19 358.809C1497.19 358.931 1492.31 367.546 1501.26 370.48C1510.21 373.413 1537.97 384.539 1539.77 396.454C1541.57 408.369 1533.39 406.642 1533.39 406.642C1533.39 406.642 1526.31 408.574 1536.44 413.879C1545.75 418.755 1563.45 418.357 1579.55 437.221C1586.56 450.001 1617.76 479.811 1576.37 487.893Z" fill="#70026D"/>
<g opacity="0.75">
<path d="M1491.63 402.328C1491.44 402.224 1490.97 401.819 1491.06 402.017C1500.48 422.277 1461.41 411.956 1457.5 398.874C1457.23 397.975 1412.33 328.17 1412.8 326.322C1414.05 321.484 1440.22 307.295 1440.67 303.728L1444.2 302.681L1451.72 303.015C1451.72 303.015 1453.59 304.5 1450.98 313.26C1448.37 322.02 1449.12 328.192 1450.95 335.139C1452.77 342.085 1454.58 352.85 1470.71 359.224C1490.14 366.902 1482.11 382.481 1482.11 382.481C1482.11 382.481 1483.34 396.115 1491.63 402.328Z" fill="#4F053E"/>
</g>
<path d="M1521.97 465.541C1519.05 458.011 1486.46 431.954 1479.6 427.36C1476.26 425.114 1407.16 308.82 1407.16 308.82L1453.86 301.308C1453.86 301.308 1445.15 319.6 1467.27 321.249C1489.39 322.898 1507.96 326.404 1508.05 342.195C1508.16 359.723 1490.22 386.636 1506.02 390.458C1521.81 394.276 1531.45 390.963 1533.63 413.729C1535.74 435.706 1550.22 445.938 1564.58 449.797C1579.71 453.863 1607.81 441.029 1623.88 453.84C1679.28 498.01 1524.99 473.09 1521.97 465.541Z" fill="#3F0634" fill-opacity="0.34"/>
<g opacity="0.5">
<path d="M1524.96 470.859C1519.92 467.432 1433.5 416.896 1433.44 416.644C1433.38 416.402 1431.47 377.337 1431.41 377.095C1428.23 367.761 1427.05 320.784 1426.2 317.111C1449.94 324.237 1506.7 350.358 1539.61 382.714C1562.82 405.528 1577.01 421.999 1585.44 432.819C1585.14 434.091 1619.99 467.27 1619.77 468.585C1618.64 475.475 1566.63 499.216 1524.96 470.859Z" fill="#70026D" fill-opacity="0.9"/>
</g>
</g>
<path d="M1457.08 287.387C1455.44 293.703 1451.53 300.285 1445.66 305.829C1444.13 307.262 1442.55 308.559 1440.93 309.717C1436.3 313.025 1431.35 315.191 1426.61 316.136C1422.54 316.946 1418.62 316.85 1415.21 315.796C1412.59 314.984 1410.26 313.596 1408.39 311.614C1408.25 311.47 1408.12 311.32 1407.99 311.172C1406.31 309.231 1405.18 306.924 1404.58 304.377C1404.02 302.005 1403.92 299.427 1404.26 296.751C1404.32 296.23 1404.4 295.71 1404.5 295.183C1405.78 288.28 1409.87 280.874 1416.37 274.75C1418.55 272.687 1420.87 270.909 1423.24 269.421C1423.9 269.01 1424.55 268.622 1425.21 268.259C1425.21 268.259 1425.21 268.259 1425.22 268.259C1435.88 262.372 1447.35 262.299 1453.64 268.965C1457.92 273.51 1458.93 280.277 1457.08 287.387Z" fill="#FEAB83"/>
<path d="M1424.76 281.187L1417.42 288.459L1418.32 292.214L1425.91 282.072L1424.76 281.187Z" fill="#FC7F69"/>
<path d="M1424.76 281.187L1423.81 280.654L1415.09 288.134L1416.61 291.716L1418.32 292.215L1417.42 288.46L1424.76 281.187Z" fill="#FFD292"/>
<path d="M1415.97 316.009C1416.73 316.212 1417.52 316.363 1418.33 316.474C1417.52 316.367 1416.73 316.212 1415.97 316.009Z" fill="#FF635F"/>
<path d="M1418.33 316.475C1419.42 316.625 1420.55 316.689 1421.7 316.67C1420.55 316.689 1419.42 316.625 1418.33 316.475Z" fill="#FF635F"/>
<path d="M1421.7 316.671C1422.09 316.665 1422.47 316.65 1422.86 316.625C1422.47 316.65 1422.09 316.665 1421.7 316.671Z" fill="#FF635F"/>
<path d="M1451.65 305.844C1449.04 307.397 1445.94 306.996 1444.73 304.947C1443.51 302.903 1444.64 299.984 1447.25 298.436C1448.83 297.493 1450.59 297.271 1452 297.7C1452.92 297.975 1453.69 298.528 1454.17 299.333C1454.32 299.579 1454.43 299.839 1454.51 300.11C1455.09 302.065 1453.94 304.484 1451.65 305.844Z" fill="#FEAB83"/>
<path d="M1452.37 297.831C1454.59 294.414 1456.18 290.86 1457.08 287.386C1452.41 284.978 1445.41 281.688 1445 283.417C1444.58 288.459 1442.16 291.487 1440.98 292.687C1440.58 293.095 1440.19 293.518 1439.85 293.979C1438.96 295.176 1436.85 297.524 1433.95 297.77C1430.05 298.106 1428.6 301.257 1428.6 301.257C1428.6 301.257 1422.97 311.276 1412.73 309.129C1406.15 307.751 1404.55 301.234 1404.26 296.75C1403.53 302.519 1404.83 307.835 1408.39 311.613C1410.26 313.595 1412.59 314.983 1415.21 315.795C1415.36 315.842 1415.52 315.883 1415.67 315.925C1422.97 317.983 1432.48 315.749 1440.93 309.716C1442.52 308.58 1444.08 307.307 1445.57 305.905C1447.06 307.076 1449.52 307.113 1451.65 305.846C1454.26 304.296 1455.39 301.378 1454.17 299.331C1453.76 298.635 1453.12 298.134 1452.37 297.831Z" fill="#FB9177"/>
<path d="M1448.96 300.086C1448.77 300.248 1447.67 301.666 1448.57 302.49C1449.47 303.314 1450.43 302.128 1450.43 302.128C1450.43 302.128 1451.11 301.545 1452.1 302.184C1453.09 302.822 1454.01 301.378 1453.36 300.557C1452.71 299.736 1451.23 298.191 1448.96 300.086Z" fill="#EE5850"/>
<path d="M1469.54 284.226C1469.27 282.948 1469 281.737 1468.7 280.623C1468.44 279.621 1468.14 278.669 1467.79 277.755C1467.77 277.706 1467.75 277.659 1467.73 277.61C1464.41 268.988 1457.48 264.176 1449.76 260.753C1441.18 256.953 1433.77 261.03 1427.4 263.17C1424.13 264.271 1422.58 263.383 1421.85 262.255C1421.55 261.783 1421.39 261.265 1421.3 260.835C1421.17 260.19 1420.49 259.825 1419.87 260.061C1419.18 260.322 1418.37 260.945 1417.79 262.37C1417.67 262.858 1417.56 263.311 1417.48 263.73C1417.25 264.903 1417.2 265.836 1417.29 266.617C1417.64 269.624 1420.13 270.364 1423.03 273.732C1426.94 278.286 1431.81 276.407 1434.91 273.997C1438 271.588 1443.33 275.406 1442.98 275.41C1442.39 276.676 1442.02 277.788 1441.82 278.757C1441.61 279.741 1441.57 280.582 1441.65 281.299C1441.79 282.857 1442.44 283.829 1442.96 284.405C1443.32 284.799 1443.83 284.996 1444.36 285.072C1444.83 285.144 1445.13 285.398 1445.32 285.696C1445.58 286.125 1445.58 286.664 1445.38 287.129L1445.33 287.26C1445.33 287.26 1445.33 287.265 1445.32 287.27C1445.28 287.329 1445.06 287.671 1444.78 288.195C1444.68 288.376 1444.58 288.581 1444.47 288.801C1443.97 289.793 1443.41 291.151 1443.19 292.509C1442.87 294.509 1443.28 296.514 1445.74 297.362C1447.43 297.578 1449.79 296.975 1449.79 296.975C1449.79 296.975 1450.32 296.979 1450.97 297.184C1451.3 297.291 1451.66 297.457 1452 297.7C1452.92 297.975 1453.69 298.528 1454.17 299.333C1454.32 299.579 1454.43 299.839 1454.51 300.111L1464.54 297.17L1464.54 297.166L1471.92 295.002C1470.93 291.28 1470.24 287.525 1469.54 284.226Z" fill="#BB02A5"/>
<path d="M1469.55 284.013C1467.43 283.093 1463.08 282.381 1456.13 286.356C1450.7 289.465 1446.88 289.382 1444.47 288.588C1444.58 288.368 1444.68 288.164 1444.78 287.982C1445.07 287.459 1445.29 287.115 1445.32 287.057C1445.33 287.052 1445.33 287.047 1445.33 287.047L1445.39 286.915C1445.58 286.451 1445.58 285.912 1445.32 285.483C1445.14 285.184 1444.84 284.931 1444.36 284.86C1443.83 284.783 1443.33 284.587 1442.97 284.193C1442.44 283.617 1441.8 282.643 1441.65 281.086C1441.58 280.368 1441.62 279.528 1441.82 278.544C1442.03 277.575 1442.39 276.462 1442.98 275.197C1443.34 275.192 1438 271.375 1434.91 273.785C1431.81 276.195 1426.95 278.074 1423.03 273.519C1422.75 273.183 1422.46 272.875 1422.19 272.588C1421.61 271.998 1421.06 271.494 1420.55 271.044C1418.82 269.493 1417.54 268.498 1417.29 266.404C1417.2 265.623 1417.25 264.69 1417.48 263.516C1417.57 263.098 1417.67 262.644 1417.8 262.157C1418.37 260.731 1419.19 260.11 1419.87 259.848C1420.49 259.613 1421.17 259.977 1421.3 260.621C1421.39 261.052 1421.55 261.57 1421.86 262.042C1422.59 263.17 1424.13 264.059 1427.4 262.958C1427.94 262.776 1428.49 262.58 1429.05 262.378C1433.14 260.878 1437.64 258.946 1442.58 258.985C1444.88 258.999 1447.27 259.44 1449.76 260.54C1457.48 263.963 1464.42 268.775 1467.74 277.397C1468.11 278.354 1468.43 279.354 1468.71 280.41C1469 281.524 1469.27 282.735 1469.55 284.013Z" fill="#DD7DC7" fill-opacity="0.66"/>
<path d="M1455.95 272.864C1455.95 272.927 1446.9 272.451 1441.82 278.757C1442.02 277.788 1442.39 276.676 1442.98 275.41C1443.33 275.406 1438 271.588 1434.91 273.997C1431.81 276.407 1426.94 278.286 1423.03 273.732C1420.13 270.364 1417.64 269.624 1417.29 266.617C1417.2 265.836 1417.25 264.902 1417.48 263.729C1418.34 265.787 1419.84 268.857 1421.47 270.104C1424.03 272.062 1427.12 277.017 1432.52 273.174C1437.93 269.326 1442.16 269.733 1443.73 272.768C1445.3 275.807 1447.06 273.76 1447.06 273.76C1447.06 273.76 1452.66 271.162 1455.95 272.864Z" fill="#8F238A"/>
<path d="M1444.78 288.195C1445.06 287.671 1445.28 287.329 1445.32 287.27C1445.33 287.265 1445.33 287.26 1445.33 287.26L1445.38 287.129C1445.58 286.665 1445.58 286.125 1445.32 285.697C1445.13 285.398 1444.83 285.144 1444.36 285.072C1443.83 284.996 1443.32 284.799 1442.96 284.405C1442.44 283.829 1441.79 282.857 1441.65 281.299C1442.25 282.331 1443.32 283.488 1445.17 284.052C1448.07 284.928 1445.92 287.204 1444.78 288.195Z" fill="#8F238A"/>
<path d="M1442.92 290.137L1442.93 290.608C1442.91 290.317 1442.92 290.137 1442.92 290.137Z" fill="#FF635F"/>
<g opacity="0.662712">
<path d="M1447.39 239.689C1447.21 239.847 1444.67 242.099 1443.36 246.152L1443.36 246.156C1443 247.302 1442.73 248.598 1442.65 250.027C1442.36 250.74 1442.13 251.433 1441.94 252.076C1441.87 252.325 1441.8 252.568 1441.74 252.807C1440.93 244.104 1446.68 239.013 1446.75 238.954C1446.96 238.777 1447.26 238.803 1447.43 239.004C1447.61 239.206 1447.59 239.512 1447.39 239.689Z" fill="#5CFF85"/>
<path d="M1455.38 238.456C1451.62 239.466 1445.5 242.381 1442.62 250.766C1442.37 251.479 1442.15 252.234 1441.95 253.033C1441.91 253.203 1441.87 253.379 1441.83 253.554C1441.79 253.302 1441.77 253.054 1441.74 252.807C1440.93 244.104 1446.68 239.014 1446.75 238.955C1446.96 238.777 1447.26 238.803 1447.43 239.004C1447.61 239.206 1447.59 239.512 1447.39 239.689C1447.21 239.847 1444.67 242.099 1443.36 246.152C1443.6 245.693 1443.85 245.242 1444.14 244.807C1444.6 244.102 1445.12 243.453 1445.69 242.863C1445.75 242.799 1445.82 242.736 1445.88 242.672C1446.29 242.259 1446.73 241.878 1447.19 241.528C1447.31 241.434 1447.43 241.346 1447.55 241.261C1448.03 240.915 1448.54 240.597 1449.06 240.314C1449.2 240.24 1449.33 240.175 1449.46 240.105C1449.6 240.035 1449.73 239.97 1449.87 239.91C1450 239.845 1450.14 239.781 1450.28 239.726C1450.4 239.676 1450.51 239.626 1450.63 239.581C1450.85 239.491 1451.09 239.4 1451.33 239.319C1451.45 239.274 1451.59 239.233 1451.71 239.192C1451.86 239.142 1452.02 239.096 1452.17 239.051C1452.32 239.009 1452.47 238.969 1452.61 238.933C1452.79 238.887 1452.96 238.842 1453.14 238.805C1453.27 238.774 1453.4 238.748 1453.54 238.722C1453.68 238.692 1453.83 238.665 1453.98 238.639C1454.17 238.603 1454.36 238.575 1454.55 238.549C1454.68 238.533 1454.82 238.511 1454.96 238.5C1455.1 238.484 1455.24 238.467 1455.38 238.456Z" fill="#5CFF85"/>
<path d="M1422.18 272.8C1418.23 274.411 1405.74 283.049 1404.58 304.376C1404.02 302.004 1403.92 299.426 1404.26 296.75C1405.17 289.414 1409.37 281.342 1416.36 274.749C1417.72 273.474 1419.12 272.309 1420.55 271.257C1421.06 271.707 1421.61 272.21 1422.18 272.8Z" fill="#41EB7A"/>
<path d="M1442.58 259.198C1441.58 259.973 1439.39 261.434 1436.11 262.18C1433.51 262.777 1430.85 262.738 1429.05 262.591C1433.14 261.092 1437.64 259.16 1442.58 259.198Z" fill="#5CFF85"/>
<path d="M1421.85 262.256C1421.38 262.101 1420.55 262.112 1419.33 262.963C1418.23 263.735 1417.62 265.287 1417.29 266.617C1417.17 265.555 1417.31 264.213 1417.8 262.371C1418.37 260.945 1419.18 260.322 1419.87 260.061C1420.49 259.825 1421.17 260.19 1421.3 260.835C1421.39 261.266 1421.55 261.783 1421.85 262.256Z" fill="#5CFF85"/>
</g>
<path d="M1419.52 279.532C1420.04 279.946 1419.88 280.99 1419.18 281.864C1418.48 282.738 1417.49 283.112 1416.98 282.698C1416.46 282.285 1416.62 281.241 1417.32 280.367C1418.02 279.492 1419.01 279.119 1419.52 279.532Z" fill="#4D0017"/>
<path d="M1429.3 287.392C1429.82 287.806 1429.66 288.849 1428.96 289.724C1428.26 290.598 1427.27 290.972 1426.76 290.558C1426.24 290.145 1426.39 289.101 1427.1 288.227C1427.8 287.352 1428.79 286.979 1429.3 287.392Z" fill="#4D0017"/>
<path d="M1435.12 288.091C1434.33 285.519 1432.82 283.578 1430.4 282.648" stroke="#4D0017" stroke-width="2.94429" stroke-linecap="round"/>
<path d="M1419.68 275.33C1421.28 275.32 1422.23 276.005 1423.78 277.179" stroke="#4D0017" stroke-width="2.94429" stroke-linecap="round"/>
<path d="M1412.22 295.18C1411.86 295.569 1414.69 298.029 1416.92 298.59C1420.09 299.385 1422.93 298.435 1422.73 298.091C1422.46 297.615 1420.6 299.222 1416.96 298.329C1413.51 297.484 1412.57 294.809 1412.22 295.18Z" fill="#4D0017"/>
<path d="M1412.22 295.18C1411.86 295.569 1414.69 298.029 1416.92 298.59C1420.09 299.385 1422.93 298.435 1422.73 298.091C1422.46 297.615 1420.6 299.222 1416.96 298.329C1413.51 297.484 1412.57 294.809 1412.22 295.18Z" stroke="#CA3F3D" stroke-width="0.546187"/>
<mask id="mask6_1_117" style="mask-type:luminance" maskUnits="userSpaceOnUse" x="1195" y="125" width="109" height="109">
<path d="M1303.89 179.656C1303.89 209.499 1279.69 233.686 1249.85 233.686C1223.89 233.686 1202.22 215.393 1197.01 190.993C1196.23 187.337 1195.82 183.544 1195.82 179.656C1195.82 149.813 1220.01 125.618 1249.85 125.618C1268.08 125.618 1284.21 134.648 1293.99 148.485C1300.22 157.289 1303.89 168.051 1303.89 179.656Z" fill="url(#paint6_radial_1_117)"/>
</mask>
<g mask="url(#mask6_1_117)">
<path d="M1303.89 179.656C1303.89 209.499 1279.69 233.686 1249.85 233.686C1223.89 233.686 1202.22 215.393 1197.01 190.993C1196.23 187.337 1195.82 183.544 1195.82 179.656C1195.82 149.813 1220.01 125.618 1249.85 125.618C1268.08 125.618 1284.21 134.648 1293.99 148.485C1300.22 157.289 1303.89 168.051 1303.89 179.656Z" fill="#5CFF85"/>
</g>
<path d="M1291.03 179.654C1291.03 202.397 1272.59 220.829 1249.85 220.829C1230.07 220.829 1213.56 206.889 1209.59 188.294C1208.99 185.508 1208.68 182.618 1208.68 179.654C1208.68 156.912 1227.11 138.474 1249.85 138.474C1263.75 138.474 1276.04 145.356 1283.49 155.9C1288.24 162.609 1291.03 170.811 1291.03 179.654Z" fill="url(#paint7_radial_1_117)"/>
<path d="M1233.92 190.983C1235.08 191.004 1236.01 191.963 1235.98 193.125C1235.96 194.287 1235 195.211 1233.84 195.189C1232.68 195.168 1231.76 194.209 1231.78 193.047C1231.8 191.885 1232.76 190.961 1233.92 190.983Z" fill="#102234"/>
<path d="M1270.33 191.658C1271.49 191.68 1272.41 192.639 1272.39 193.801C1272.37 194.962 1271.41 195.887 1270.25 195.865C1269.09 195.843 1268.16 194.884 1268.19 193.723C1268.21 192.561 1269.17 191.637 1270.33 191.658Z" fill="#102234"/>
<path d="M1253.96 198.777C1257.91 199.104 1260.19 196.813 1260.79 198.641C1261.37 200.374 1257.2 201.377 1254.21 201.314C1251.37 201.254 1247.23 200.362 1247.55 198.666C1247.88 196.867 1250.45 198.486 1253.96 198.777Z" fill="#102234"/>
<defs>
<linearGradient id="paint0_linear_1_117" x1="1677.45" y1="318.652" x2="0.464259" y2="-219.86" gradientUnits="userSpaceOnUse">
<stop stop-color="#FF7337"/>
<stop offset="0.5" stop-color="#A75894"/>
<stop offset="1" stop-color="#7E98FD"/>
</linearGradient>
<linearGradient id="paint1_linear_1_117" x1="-17.167" y1="287.279" x2="1.38217" y2="344.588" gradientUnits="userSpaceOnUse">
<stop stop-color="#FFB7AB"/>
<stop offset="0.12" stop-color="#9F81B6"/>
<stop offset="0.44" stop-color="#3F4AC0"/>
<stop offset="0.86" stop-color="#232881"/>
<stop offset="0.99" stop-color="#070741"/>
</linearGradient>
<linearGradient id="paint2_linear_1_117" x1="-17.167" y1="287.279" x2="1.38217" y2="344.588" gradientUnits="userSpaceOnUse">
<stop stop-color="#FFB7AB"/>
<stop offset="0.12" stop-color="#9F81B6"/>
<stop offset="0.44" stop-color="#3F4AC0"/>
<stop offset="0.86" stop-color="#232881"/>
<stop offset="0.99" stop-color="#070741"/>
</linearGradient>
<linearGradient id="paint3_linear_1_117" x1="979.38" y1="595.681" x2="938.513" y2="645.317" gradientUnits="userSpaceOnUse">
<stop stop-color="#F9BB9E"/>
<stop offset="0.26" stop-color="#F89082"/>
<stop offset="0.53" stop-color="#F66465"/>
<stop offset="0.76" stop-color="#B25B8D"/>
<stop offset="1" stop-color="#6E52B5"/>
</linearGradient>
<linearGradient id="paint4_linear_1_117" x1="979.38" y1="595.681" x2="938.513" y2="645.317" gradientUnits="userSpaceOnUse">
<stop stop-color="#F9BB9E"/>
<stop offset="0.26" stop-color="#F89082"/>
<stop offset="0.53" stop-color="#F66465"/>
<stop offset="0.76" stop-color="#B25B8D"/>
<stop offset="1" stop-color="#6E52B5"/>
</linearGradient>
<linearGradient id="paint5_linear_1_117" x1="1357.28" y1="270.028" x2="1450.08" y2="477.118" gradientUnits="userSpaceOnUse">
<stop stop-color="#29FE85"/>
<stop offset="0.05" stop-color="#92DA96"/>
<stop offset="0.23" stop-color="#FBB6A7"/>
<stop offset="0.38" stop-color="#FAAD9F"/>
<stop offset="0.53" stop-color="#F9A496"/>
<stop offset="0.73" stop-color="#F8887C"/>
<stop offset="1" stop-color="#F76D63"/>
</linearGradient>
<radialGradient id="paint6_radial_1_117" cx="0" cy="0" r="1" gradientUnits="userSpaceOnUse" gradientTransform="translate(1249.85 179.652) scale(51.2317 51.2317)">
<stop stop-color="white"/>
<stop offset="0.5" stop-color="#808080"/>
<stop offset="1"/>
</radialGradient>
<radialGradient id="paint7_radial_1_117" cx="0" cy="0" r="1" gradientUnits="userSpaceOnUse" gradientTransform="translate(1229.92 150.261) scale(84.4463 84.4463)">
<stop stop-color="#BECBFF"/>
<stop offset="0.26" stop-color="#7E98FD"/>
<stop offset="0.51" stop-color="#4B70FF"/>
</radialGradient>
</defs>
</svg>
