<svg width="146" height="36" viewBox="0 0 146 36" fill="none" xmlns="http://www.w3.org/2000/svg">
<path d="M16.1795 4.01221L16.1003 31.7861L21.2764 21.7074L32.3125 27.4235L16.1795 4.01221ZM20.6069 18.6406L17.7273 25.2566V8.66276L26.4957 22.1609L20.6069 18.6406Z" fill="#FF7337"/>
<path d="M15.0273 4.03369L9.36169 15.0842L0.3125 10.8944L14.9481 31.7716L15.0273 4.03369ZM13.4363 27.0707L4.89828 15.1274L10.1968 17.2871L13.4579 10.3545L13.4363 27.0707Z" fill="white"/>
<path d="M13.1049 5.18574C13.5152 4.64581 13.9112 4.10584 14.3071 3.57311L15.315 2.19812V1.60059L15.207 1.75178L14.0408 3.38598C13.652 3.9331 13.2633 4.48021 12.8889 5.03454C12.5146 5.58887 12.1258 6.13598 11.7515 6.69031C11.3771 7.24463 11.0316 7.79897 10.6356 8.36049C11.0604 7.84216 11.4707 7.30943 11.8811 6.7839C12.2914 6.25837 12.7089 5.71846 13.1049 5.18574Z" fill="#FF7337"/>
<path d="M15.3293 1.6005V0.837402L10.65 8.36761" fill="#FF7337"/>
<path d="M18.0007 5.16421C17.5975 4.62428 17.2016 4.08436 16.7985 3.55163L15.7978 2.17659V1.5791L15.9058 1.73025L17.0792 3.36445C17.4608 3.91158 17.8495 4.45869 18.2311 5.01301C18.6126 5.56734 18.987 6.1145 19.3685 6.66883C19.7501 7.22315 20.0884 7.77744 20.4772 8.33896C20.0596 7.82063 19.6493 7.2879 19.2389 6.76237L18.0007 5.16421Z" fill="white"/>
<path d="M15.7762 1.57901V0.815918L20.4556 8.33887" fill="white"/>
<path d="M13.0759 30.8212C13.479 31.3539 13.875 31.8938 14.2781 32.4337L15.2788 33.8088V34.3991L15.1708 34.2479L14.0046 32.6137L12.8455 30.9723L11.7081 29.3094C11.3337 28.7551 10.9882 28.2007 10.5994 27.6392C11.0242 28.1575 11.4345 28.6903 11.8377 29.2158C12.2408 29.7413 12.6799 30.2812 13.0759 30.8212Z" fill="#FF7337"/>
<path d="M15.3005 34.3991V35.1622L10.6212 27.6392" fill="#FF7337"/>
<path d="M17.972 30.8431C17.5688 31.3759 17.1729 31.9158 16.7697 32.4557L15.769 33.8307V34.421L15.877 34.2699L17.0433 32.6357L18.2023 30.9943L19.3398 29.3313C19.7141 28.7769 20.0597 28.2227 20.4484 27.6611C20.0237 28.1795 19.6133 28.7121 19.203 29.2377C18.7926 29.7632 18.3679 30.3032 17.972 30.8431Z" fill="white"/>
<path d="M15.7474 34.421V35.1841L20.4267 27.6611" fill="white"/>
<path d="M60.9 11V25H59.5V13.12L54.6 21.32H54.4L49.5 13.12V25H48.1V11H49.84L54.5 18.8L59.16 11H60.9ZM72.4961 15H73.8161V25H72.4961V23.04C71.5761 24.5067 70.2294 25.24 68.4561 25.24C67.0294 25.24 65.8094 24.7333 64.7961 23.72C63.7961 22.7067 63.2961 21.4667 63.2961 20C63.2961 18.5333 63.7961 17.2933 64.7961 16.28C65.8094 15.2667 67.0294 14.76 68.4561 14.76C70.2294 14.76 71.5761 15.4933 72.4961 16.96V15ZM65.7561 22.82C66.5161 23.58 67.4494 23.96 68.5561 23.96C69.6628 23.96 70.5961 23.58 71.3561 22.82C72.1161 22.0467 72.4961 21.1067 72.4961 20C72.4961 18.8933 72.1161 17.96 71.3561 17.2C70.5961 16.4267 69.6628 16.04 68.5561 16.04C67.4494 16.04 66.5161 16.4267 65.7561 17.2C64.9961 17.96 64.6161 18.8933 64.6161 20C64.6161 21.1067 64.9961 22.0467 65.7561 22.82ZM77.9309 16.66C78.5443 15.4467 79.5976 14.84 81.0909 14.84V16.12C80.1843 16.12 79.4309 16.3867 78.8309 16.92C78.2309 17.4533 77.9309 18.2933 77.9309 19.44V25H76.6109V15H77.9309V16.66ZM90.8945 15H92.2145V29H90.8945V23.04C89.9745 24.5067 88.6279 25.24 86.8545 25.24C85.4279 25.24 84.2079 24.7333 83.1945 23.72C82.1945 22.7067 81.6945 21.4667 81.6945 20C81.6945 18.5333 82.1945 17.2933 83.1945 16.28C84.2079 15.2667 85.4279 14.76 86.8545 14.76C88.6279 14.76 89.9745 15.4933 90.8945 16.96V15ZM84.1545 22.82C84.9145 23.58 85.8479 23.96 86.9545 23.96C88.0612 23.96 88.9945 23.58 89.7545 22.82C90.5145 22.0467 90.8945 21.1067 90.8945 20C90.8945 18.8933 90.5145 17.96 89.7545 17.2C88.9945 16.4267 88.0612 16.04 86.9545 16.04C85.8479 16.04 84.9145 16.4267 84.1545 17.2C83.3945 17.96 83.0145 18.8933 83.0145 20C83.0145 21.1067 83.3945 22.0467 84.1545 22.82Z" fill="white"/>
<path d="M104.009 11V12.32H99.7094V25H98.3094V12.32H94.0094V11H104.009ZM116.854 15H118.214L115.134 25H113.694L111.114 16.94L108.534 25H107.094L104.014 15H105.374L107.834 23.3L110.454 15H111.774L114.394 23.3L116.854 15ZM121.545 12.6C121.358 12.7867 121.131 12.88 120.865 12.88C120.598 12.88 120.371 12.7867 120.185 12.6C119.998 12.4133 119.905 12.1867 119.905 11.92C119.905 11.6533 119.998 11.4267 120.185 11.24C120.371 11.0533 120.598 10.96 120.865 10.96C121.131 10.96 121.358 11.0533 121.545 11.24C121.731 11.4267 121.825 11.6533 121.825 11.92C121.825 12.1867 121.731 12.4133 121.545 12.6ZM120.205 25V15H121.525V25H120.205ZM129.006 14.76C130.219 14.76 131.172 15.1333 131.866 15.88C132.572 16.6133 132.926 17.6067 132.926 18.86V25H131.606V18.86C131.606 17.9667 131.366 17.2733 130.886 16.78C130.419 16.2867 129.752 16.04 128.886 16.04C127.926 16.04 127.146 16.3467 126.546 16.96C125.946 17.56 125.646 18.4933 125.646 19.76V25H124.326V15H125.646V16.56C126.392 15.36 127.512 14.76 129.006 14.76ZM140.158 14.76C141.371 14.76 142.325 15.1333 143.018 15.88C143.725 16.6133 144.078 17.6067 144.078 18.86V25H142.758V18.86C142.758 17.9667 142.518 17.2733 142.038 16.78C141.571 16.2867 140.905 16.04 140.038 16.04C139.078 16.04 138.298 16.3467 137.698 16.96C137.098 17.56 136.798 18.4933 136.798 19.76V25H135.478V15H136.798V16.56C137.545 15.36 138.665 14.76 140.158 14.76Z" fill="#FF7337"/>
</svg>
